<svg id="Layer_1" enable-background="new 0 0 512 512" height="512" viewBox="0 0 512 512" width="512" xmlns="http://www.w3.org/2000/svg"><g><path d="m419.65 422.88c-19.58 27.06-45.41 52.49-78.54 73.75 0 0-5.7 1.36-16.09 2.94-14.65 2.24-38.6 4.93-69 4.93-51.96 0-85.09-7.87-85.09-7.87-33.13-21.26-58.95-46.69-78.53-73.74v-.01c-49.43-68.31-59.06-146.98-46.17-195.33.08-.34.18-.69.27-1.03 25.82-93.72 124.43-75.4 124.43-75.4-25.04-38.07-23.36-87.62-23.36-87.62h216.9s1.68 49.55-23.36 87.62c0 0 98.61-18.32 124.43 75.4.1.36.2.73.29 1.1 12.86 48.35 3.22 126.99-46.18 195.26z" fill="#6cd898"/><path d="m419.65 422.88c-19.58 27.06-45.41 52.49-78.54 73.75 0 0-5.7 1.36-16.09 2.94 101.56-76.6 123.44-196.69 105.93-260.23-25.82-93.71-124.43-64.17-124.43-64.17 22.94-50.53 27.69-88.3 28.11-111.67h29.84s1.68 49.55-23.36 87.62c0 0 98.61-18.32 124.43 75.4.1.36.2.73.29 1.1 12.86 48.35 3.22 126.99-46.18 195.26z" fill="#56ba8f"/><path d="m419.65 422.88h-.01c-7.56.5-16.07 1.03-25.4 1.54-36.19 2.03-84.76 3.96-138.22 3.96-67.24 0-126.75-3.06-163.62-5.5-49.43-68.31-59.06-146.98-46.17-195.33l.29.13s93.64-8.49 209.5-8.49c70.01 0 131.91 3.1 169.94 5.56 24.9 1.6 39.56 2.93 39.56 2.93l.31-.06c12.86 48.35 3.22 126.99-46.18 195.26z" fill="#ffd892"/><path d="m391.02 39.41c0 14.11-5.84 23.85-5.84 23.85s-8.96 1.35-24.68 2.93c-22.81 2.31-59.87 5.13-104.48 5.13-75.36 0-129.16-8.06-129.16-8.06s-5.84-9.74-5.84-23.85 5.84-23.85 5.84-23.85 53.8-8.06 129.16-8.06c44.44 0 81.38 2.8 104.21 5.1 15.89 1.6 24.95 2.96 24.95 2.96s5.84 9.74 5.84 23.85z" fill="#ff834d"/><path d="m391.02 39.41c0 14.11-5.84 23.85-5.84 23.85s-8.96 1.35-24.68 2.93c4.46-24.2 2.33-42.46-.27-53.59 15.89 1.6 24.95 2.96 24.95 2.96s5.84 9.74 5.84 23.85z" fill="#dd6352"/><path d="m419.65 422.88h-.01c-7.56.5-16.07 1.03-25.4 1.54 41.72-66.32 49.15-139.96 36.71-185.08-1.44-5.24-3.12-10.1-4.99-14.59 24.9 1.6 39.56 2.93 39.56 2.93l.31-.06c12.86 48.35 3.22 126.99-46.18 195.26z" fill="#ffc269"/></g><g><path d="m472.772 224.522c-14.296-51.875-49.913-71.109-77.273-78.11-15.696-4.016-30.344-4.534-40.692-4.13 13.244-26.588 16.353-55.025 17.02-69.782 9.159-1.043 14.297-1.801 14.461-1.825 2.216-.332 4.167-1.637 5.32-3.559.282-.471 6.912-11.706 6.912-27.707 0-16-6.629-27.235-6.912-27.706-1.153-1.922-3.104-3.227-5.32-3.559-.543-.081-55.216-8.144-130.268-8.144-16.809 0-33.917.403-50.852 1.198-4.138.194-7.334 3.706-7.14 7.843.194 4.138 3.715 7.348 7.843 7.14 16.702-.784 33.574-1.181 50.149-1.181 62.495 0 110.523 5.655 124.146 7.444 1.413 3.432 3.354 9.504 3.354 16.965 0 7.469-1.944 13.545-3.352 16.966-13.62 1.788-61.649 7.444-124.148 7.444-62.495 0-110.523-5.655-124.146-7.444-1.413-3.432-3.354-9.504-3.354-16.966 0-7.471 1.945-13.548 3.353-16.968 5.553-.732 16.812-2.11 32.337-3.472 4.126-.362 7.178-4 6.816-8.126-.361-4.127-4.006-7.178-8.126-6.816-23.06 2.023-36.583 4.033-37.147 4.118-2.216.332-4.167 1.637-5.32 3.559-.282.47-6.912 11.706-6.912 27.706s6.629 27.236 6.912 27.707c1.153 1.921 3.104 3.227 5.32 3.559.165.025 5.303.782 14.462 1.826.668 14.727 3.777 43.188 17.02 69.782-10.347-.404-24.998.114-40.692 4.13-27.361 7.001-62.978 26.235-77.274 78.11-11.087 40.232-5.989 93.41 13.639 142.25 1.176 2.926 3.989 4.705 6.961 4.705.931 0 1.877-.174 2.794-.543 3.843-1.544 5.707-5.913 4.162-9.756-17.437-43.387-22.757-90.073-14.633-126.455 20.856-1.713 104.621-8.038 203.829-8.038 14.646 0 29.73.138 44.835.412 4.166.057 7.56-3.222 7.635-7.364.075-4.141-3.222-7.559-7.363-7.634-15.195-.275-30.372-.414-45.107-.414-92.344 0-171.421 5.452-199.38 7.635 11.001-30.607 32.2-50.187 63.14-58.252 26.008-6.779 49.56-2.61 49.783-2.569 2.954.55 5.954-.72 7.617-3.224 1.664-2.504 1.671-5.76.019-8.271-16.822-25.576-20.895-57.271-21.86-72.923 23.325 2.232 58.832 4.739 100.681 4.739s77.357-2.507 100.682-4.739c-.964 15.68-5.038 47.345-21.861 72.923-1.65 2.509-1.639 5.758.018 8.261s4.654 3.774 7.607 3.236c.234-.043 23.785-4.212 49.794 2.567 30.939 8.065 52.138 27.645 63.139 58.25-18.646-1.46-59.986-4.375-112.568-6.14-4.156-.135-7.608 3.104-7.747 7.244s3.104 7.608 7.244 7.747c58.592 1.967 103.091 5.365 117.52 6.553 7.729 34.733 3.168 79.44-12.572 121.162-6.594 17.48-16.612 38.309-31.695 59.745-37.802 2.449-95.117 5.249-159.562 5.249-64.453 0-121.773-2.8-159.575-5.25-5.188-7.382-10.034-15.021-14.492-22.939-2.031-3.609-6.604-4.888-10.215-2.855-3.609 2.032-4.888 6.605-2.855 10.215 23.396 41.554 56.369 76.17 98 102.888.711.457 1.494.789 2.316.985 1.388.33 34.586 8.078 86.821 8.078s85.434-7.749 86.821-8.078c.822-.196 1.605-.528 2.316-.985 68.352-43.865 100.892-101.3 116.154-141.758 17.775-47.118 22.059-98.204 11.461-136.659zm-134.599 265.071c-6.338 1.353-37.221 7.407-82.153 7.407-44.938 0-75.824-6.056-82.153-7.407-25.305-16.394-47.18-35.885-65.441-58.192 37.58 2.234 89.721 4.478 147.594 4.478 57.865 0 110-2.243 147.579-4.477-16.542 20.199-37.884 40.346-65.426 58.191z"/><path d="m139.352 253.277c-28.147 0-34.543 16.348-39.213 28.285-4.039 10.324-6.264 16.012-19.121 16.012-4.142 0-7.5 3.358-7.5 7.5s3.358 7.5 7.5 7.5c23.096-.001 28.872-14.766 33.089-25.547 4.417-11.291 7.335-18.75 25.244-18.75 4.142 0 7.5-3.358 7.5-7.5s-3.356-7.5-7.499-7.5z"/><path d="m295.232 281.562c-4.67-11.937-11.065-28.285-39.213-28.285-28.147 0-34.542 16.348-39.212 28.285-4.039 10.324-6.264 16.012-19.12 16.012-12.858 0-15.083-5.688-19.122-16.012-.794-2.029-1.615-4.127-2.564-6.234-1.702-3.776-6.144-5.459-9.919-3.756-3.776 1.702-5.458 6.143-3.756 9.919.794 1.762 1.511 3.595 2.271 5.536 4.218 10.781 9.994 25.546 33.091 25.547 23.096-.001 28.872-14.766 33.089-25.547 4.417-11.291 7.335-18.75 25.243-18.75s20.827 7.459 25.244 18.75c4.218 10.781 9.994 25.546 33.09 25.547 23.096-.001 28.872-14.766 33.089-25.547 4.417-11.291 7.335-18.75 25.244-18.75s20.826 7.459 25.243 18.75c4.217 10.781 9.994 25.546 33.089 25.547 4.142 0 7.5-3.358 7.5-7.5s-3.357-7.5-7.5-7.5c-12.857 0-15.083-5.688-19.121-16.012-4.67-11.937-11.065-28.285-39.212-28.285s-34.543 16.348-39.213 28.285c-4.039 10.324-6.264 16.012-19.12 16.012-12.857 0-15.083-5.688-19.121-16.012z"/><path d="m152.63 365.788c-3.142-8.032-7.891-20.17-26.335-20.171-4.142 0-7.5 3.358-7.5 7.5s3.357 7.5 7.5 7.5c8.207 0 9.425 3.114 12.368 10.636 3.458 8.841 8.685 22.201 30.875 22.201s27.416-13.36 30.875-22.201c2.943-7.522 4.161-10.636 12.367-10.636 8.207 0 9.425 3.114 12.368 10.636 3.458 8.841 8.685 22.201 30.874 22.201s27.416-13.36 30.875-22.201c2.942-7.522 4.161-10.636 12.366-10.636 8.207 0 9.425 3.114 12.368 10.636 3.458 8.841 8.685 22.201 30.875 22.201s27.417-13.36 30.875-22.201c2.943-7.522 4.161-10.635 12.367-10.636 4.142 0 7.5-3.358 7.5-7.5s-3.358-7.5-7.5-7.5c-18.444.001-23.193 12.139-26.335 20.171-3.195 8.167-4.955 12.666-16.906 12.666s-13.71-4.499-16.906-12.666c-3.142-8.032-7.891-20.17-26.336-20.171-18.444.001-23.193 12.139-26.335 20.171-3.195 8.167-4.955 12.666-16.906 12.666s-13.71-4.499-16.906-12.666c-3.142-8.032-7.891-20.17-26.336-20.171-18.445.001-23.193 12.139-26.335 20.171-3.195 8.167-4.955 12.666-16.906 12.666s-13.716-4.499-16.911-12.666z"/><circle cx="205.519" cy="112.781" r="7.5"/><circle cx="256.019" cy="114.772" r="7.5"/><circle cx="306.519" cy="112.782" r="7.5"/></g></svg>