
<!-- Generator: Adobe Illustrator 19.0.0, SVG Export Plug-In . SVG Version: 6.00 Build 0)  -->
<svg version="1.1" id="Capa_1" xmlns="http://www.w3.org/2000/svg" xmlns:xlink="http://www.w3.org/1999/xlink" x="0px" y="0px"
	 viewBox="0 0 512 512" style="enable-background:new 0 0 512 512;" xml:space="preserve" width="512" height="512">
<path style="fill:#4A94CC;" d="M330.86,210.671c-40.605-92.254,1.034-168.969,1.034-172.668c-7.835,0-146.652,0-152.837,0
	c0,3.699,41.64,80.414,1.033,172.668h0.41c0,0-119.75,53.281-7.385,263.442c7.917,0,158.452,0,165.129,0
	C450.61,263.952,330.86,210.671,330.86,210.671z"/>
<path style="fill:#378BBF;" d="M195.052,220.827L195.052,220.827c0,0,0.006-0.003,0.007-0.004c2.329-1.328,5.862-4.83,8.657-10.632
	c35.17-89.18-3.201-168.591-3.201-172.188h-21.458c0,3.699,41.64,80.414,1.033,172.668h0.41c0,0-119.75,53.281-7.385,263.442h21.458
	C97.729,292.983,172.537,233.739,195.052,220.827z"/>
<path style="fill:#49B5CE;" d="M134.633,381.557h242.094c7.789-27.991,10.317-51.749,9.443-71.817H125.191
	C124.316,329.807,126.845,353.565,134.633,381.557z"/>
<path style="fill:#36A1B2;" d="M155.864,381.557c-7.981-28.33-10.449-52.045-9.402-71.817h-21.271
	c-1.142,26.186,3.335,47.999,9.443,71.817H155.864z"/>
<path style="fill:#49B5CE;" d="M315.642,94.242c5.147-32.941,16.253-54.329,16.253-56.239c-7.835,0-146.652,0-152.837,0
	c0,1.91,11.105,23.298,16.253,56.239H315.642z"/>
<path style="fill:#36A1B2;" d="M182.94,48.206c6.583,17.196,9.637,30.183,12.37,46.036h20.356
	c-5.102-32.699-15.151-54.399-15.151-56.239h-21.458C179.057,38.59,182.718,47.629,182.94,48.206z"/>
<g>
	<path style="fill:#2571A0;" d="M360.875,22.472v-4.885C360.875,7.874,353.002,0,343.287,0H166.006
		c-9.713,0-17.588,7.874-17.588,17.587v4.885c0,9.713,7.875,17.589,17.588,17.589h177.282
		C353.002,40.062,360.875,32.186,360.875,22.472z"/>
	<path style="fill:#2571A0;" d="M360.875,494.413v-4.887c0-9.713-7.873-17.587-17.587-17.587H166.006
		c-9.713,0-17.588,7.874-17.588,17.587v4.887c0,9.711,7.875,17.587,17.588,17.587h177.282
		C353.002,512,360.875,504.124,360.875,494.413z"/>
</g>
<g>
	<path style="fill:#1A678E;" d="M343.287,19.992H166.006c-6.991,0-13.01-4.09-15.847-9.997c-1.105,2.302-1.742,4.87-1.742,7.593
		v4.885c0,9.713,7.875,17.589,17.588,17.589h177.282c9.714,0,17.587-7.876,17.587-17.589v-4.885c0-2.723-0.637-5.291-1.742-7.593
		C356.298,15.902,350.278,19.992,343.287,19.992z"/>
	<path style="fill:#1A678E;" d="M343.287,491.93H166.006c-6.991,0-13.011-4.09-15.847-9.996c-2.083,4.339-1.742,7.397-1.742,12.479
		c0,9.711,7.875,17.587,17.588,17.587h177.282c9.714,0,17.587-7.876,17.587-17.587v-4.887c0-2.723-0.637-5.291-1.741-7.592
		C356.298,487.84,350.278,491.93,343.287,491.93z"/>
</g>
<g>
	<path style="fill:#2571A0;" d="M387.462,317.459H124.538c-4.263,0-7.719-3.456-7.719-7.719s3.456-7.719,7.719-7.719h262.924
		c4.263,0,7.719,3.456,7.719,7.719S391.725,317.459,387.462,317.459z"/>
	<path style="fill:#2571A0;" d="M378.104,389.276H132.962c-4.263,0-7.719-3.456-7.719-7.719c0-4.264,3.456-7.719,7.719-7.719
		h245.142c4.263,0,7.719,3.456,7.719,7.719S382.367,389.276,378.104,389.276z"/>
</g>
<g>
</g>
<g>
</g>
<g>
</g>
<g>
</g>
<g>
</g>
<g>
</g>
<g>
</g>
<g>
</g>
<g>
</g>
<g>
</g>
<g>
</g>
<g>
</g>
<g>
</g>
<g>
</g>
<g>
</g>
</svg>
