<svg id="Layer_1" height="512" viewBox="0 0 512 512" width="512" xmlns="http://www.w3.org/2000/svg" data-name="Layer 1"><path d="m164 427.17v68.83h184v-68.84z" fill="#86bdce"/><path d="m164 427h30v69h-30z" fill="#618a93"/><path d="m400.97 212.48c-7.47-27.91-19.81-52.985-35.73-73.565a88.235 88.235 0 0 1 -17.16-69.915h-187.47l1.08 8.615a89.223 89.223 0 0 1 -17.15 64.237c-20.98 28.271-35.36 64.554-39.99 104.814a247.489 247.489 0 0 0 -1.61 28.252 244.02 244.02 0 0 0 4.5 46.881c8.59 43.94 28.97 81.97 56.65 108.371 25.6 24.419 57.42 38.89 91.91 38.89s66.31-14.48 91.91-38.9c34.41-32.83 57.56-83.64 60.76-141.42q.39-6.855.39-13.83a241.319 241.319 0 0 0 -8.09-62.43z" fill="#53d8d8"/><path d="m194.09 430.169c-27.68-26.4-48.06-64.43-56.65-108.37a244.02 244.02 0 0 1 -4.5-46.881 247.489 247.489 0 0 1 1.61-28.252c4.63-40.26 19.01-76.544 39.99-104.814a89.223 89.223 0 0 0 17.15-64.237l-1.08-8.615h-30l1.08 8.615a89.223 89.223 0 0 1 -17.15 64.237c-20.98 28.27-35.36 64.554-39.99 104.814a247.489 247.489 0 0 0 -1.61 28.252 244.02 244.02 0 0 0 4.5 46.881c8.59 43.94 28.97 81.97 56.65 108.37 25.6 24.42 57.42 38.891 91.91 38.891a122.375 122.375 0 0 0 15-.93c-28.695-3.541-55.068-17.125-76.91-37.961z" fill="#42a09d"/><path d="m358.04 16-9.85 52.4c-.04.21-.08.42-.11.63h-187.47l-6.65-53.03z" fill="#49b7b4"/><path d="m409.06 274.91q0 6.975-.39 13.83a26.992 26.992 0 0 0 -11.02-2.2c-28.33 0-28.33 36.06-56.67 36.06s-28.33-36.06-56.66-36.06-28.33 36.06-56.66 36.06-28.33-36.06-56.66-36.06-28.33 36.06-56.66 36.06a28.655 28.655 0 0 1 -6.9-.8 244.009 244.009 0 0 1 -4.5-46.88 247.454 247.454 0 0 1 1.61-28.25 27.373 27.373 0 0 0 9.79 1.7c28.33 0 28.33-36.06 56.66-36.06s28.33 36.06 56.66 36.06 28.33-36.06 56.66-36.06 28.33 36.06 56.66 36.06 28.34-36.06 56.67-36.06a32.194 32.194 0 0 1 3.32.17 241.319 241.319 0 0 1 8.09 62.43z" fill="#a0eaea"/><path d="m153.96 16 6.65 53h30l-6.65-53z" fill="#3b7f7c"/><path d="m132.94 274.918a247.489 247.489 0 0 1 1.61-28.252q.459-3.995 1.049-7.933c-5.3 5.483-11.649 9.637-21.259 9.637a27.373 27.373 0 0 1 -9.79-1.7 247.454 247.454 0 0 0 -1.61 28.25 244.009 244.009 0 0 0 4.5 46.88 28.655 28.655 0 0 0 6.9.8c9.766 0 16.164-4.286 21.518-9.9a245.481 245.481 0 0 1 -2.918-37.782z" fill="#83bab9"/><g fill="#284268"><path d="m354.082 69.513 9.85-52.4a6 6 0 0 0 -5.9-7.108h-204.068a6 6 0 0 0 -5.953 6.746l7.723 61.628a82.911 82.911 0 0 1 -16.013 59.909c-27.589 37.173-42.783 85.7-42.783 136.64 0 53.195 16.379 103.265 46.119 140.989a181.216 181.216 0 0 0 14.943 16.74v63.343a6.075 6.075 0 0 0 6.087 6h183.826a6.075 6.075 0 0 0 6.087-6v-63.347a181.23 181.23 0 0 0 14.943-16.746c29.74-37.726 46.118-87.8 46.118-140.994 0-52.491-16.008-102.086-45.074-139.651a82.615 82.615 0 0 1 -15.905-65.749zm-3.282-47.513-7.711 41h-177.189l-5.141-41zm-8.8 468h-172v-46.591c25.4 20.606 55 31.655 86 31.655s60.6-11.05 86-31.658zm-86-26.936c-66.52 0-122.855-56.8-140.957-134.475 16.61-.294 24.967-10.915 32.346-20.309 6.908-8.791 12.363-15.736 23.612-15.736s16.7 6.945 23.612 15.736c7.484 9.526 15.966 20.323 33.047 20.323s25.565-10.8 33.05-20.323c6.907-8.791 12.363-15.736 23.613-15.736s16.705 6.945 23.612 15.736c7.484 9.526 15.967 20.323 33.048 20.323s25.567-10.8 33.052-20.322c6.909-8.792 12.366-15.737 23.617-15.737a23.349 23.349 0 0 1 4.727.459c-7.139 95.291-70.059 170.061-146.379 170.061zm147.061-188.151c0 2.016-.033 4.022-.083 6.022a36.2 36.2 0 0 0 -5.326-.391c-17.083 0-25.567 10.8-33.052 20.322-6.909 8.792-12.366 15.737-23.617 15.737s-16.7-6.945-23.612-15.736c-7.484-9.526-15.967-20.323-33.048-20.323s-25.565 10.8-33.049 20.323c-6.908 8.791-12.364 15.736-23.614 15.736s-16.7-6.945-23.611-15.736c-7.485-9.526-15.967-20.323-33.048-20.323s-25.564 10.8-33.048 20.323c-6.907 8.791-12.363 15.736-23.611 15.736-.6 0-1.191-.028-1.772-.069a238.491 238.491 0 0 1 -3.632-41.611q0-10.506.9-20.834a36.554 36.554 0 0 0 4.5.276c17.081 0 25.564-10.8 33.047-20.323 6.908-8.791 12.363-15.735 23.612-15.735s16.7 6.944 23.612 15.736c7.484 9.525 15.966 20.322 33.047 20.322s25.565-10.8 33.05-20.322c6.907-8.792 12.363-15.736 23.613-15.736s16.705 6.944 23.612 15.736c7.484 9.525 15.967 20.322 33.048 20.322s25.567-10.8 33.052-20.322c6.624-8.43 11.928-15.143 22.27-15.684a237.183 237.183 0 0 1 6.76 56.554zm-38.461-48.287c-6.909 8.792-12.365 15.738-23.617 15.738s-16.7-6.944-23.612-15.736c-7.484-9.525-15.967-20.322-33.048-20.322s-25.565 10.8-33.049 20.323c-6.908 8.792-12.364 15.736-23.614 15.736s-16.7-6.944-23.611-15.736c-7.484-9.526-15.967-20.322-33.048-20.322s-25.564 10.8-33.048 20.322c-6.907 8.792-12.363 15.736-23.611 15.736a24.252 24.252 0 0 1 -3.166-.218c4.964-36.107 18.089-69.64 38.181-96.713a94.885 94.885 0 0 0 18.283-68.566l-.232-1.868h173.761a94.748 94.748 0 0 0 19.331 67.592 199.354 199.354 0 0 1 32.573 63.982c-14.086 1.738-21.689 11.418-28.473 20.052z"/><path d="m191.306 103.3a6 6 0 0 0 -7.24 4.425 84.157 84.157 0 0 1 -14.345 30.556 202.463 202.463 0 0 0 -17.916 29.076 6 6 0 1 0 10.7 5.425 190.406 190.406 0 0 1 16.848-27.35 96.1 96.1 0 0 0 16.374-34.892 6 6 0 0 0 -4.421-7.24z"/><path d="m192.364 82h-.011a6.141 6.141 0 0 0 -5.989 6.177c0 1.3-.028 2.708-.089 4.017a6.075 6.075 0 0 0 5.715 6.356c.094.005.189.007.283.007a6 6 0 0 0 5.989-5.721c.07-1.5.1-3.186.1-4.68a6.145 6.145 0 0 0 -5.998-6.156z"/></g></svg>