<svg id="Capa_1" enable-background="new 0 0 512 512" height="512" viewBox="0 0 512 512" width="512" xmlns="http://www.w3.org/2000/svg"><g><g><path d="m415.93 182.16-3.69 23.32-56.24 120.13 19.59 111.87-11.78 74.52h-215.62l-11.78-74.52 19.59-111.87-56.24-120.13-3.69-23.32c-3.97-25.18 3.24-50.73 19.8-70.11 12.42-14.53 29.09-24.42 47.41-28.45l-17.31-68.6h220.06l-17.31 68.6c18.32 4.03 34.99 13.92 47.41 28.45 16.56 19.38 23.77 44.93 19.8 70.11z" fill="#ff6c6c"/><path d="m415.93 182.16-3.69 23.32-56.24 120.13 19.59 111.87-11.78 74.52h-107.81v-497h110.03l-17.31 68.6c18.32 4.03 34.99 13.92 47.41 28.45 16.56 19.38 23.77 44.93 19.8 70.11z" fill="#ff3f5c"/></g><path d="m126 0h260v30h-260z" fill="#ff3f5c"/><path d="m402.76 265.48-27.17 172h-239.18l-27.17-172z" fill="#f2eedf"/><path d="m402.76 265.48-27.17 172h-119.59v-172z" fill="#e8d9cd"/><path d="m412.24 205.48-9.48 60h-293.52l-9.48-60z" fill="#ff3f5c"/><g><path d="m296 311.608h30v30h-30z" fill="#d6bfb0"/><g fill="#e8d9cd"><path d="m241 361.61h30v30h-30z"/><path d="m186 311.608h30v30h-30z"/></g></g><path d="m256 361.61h15v30h-15z" fill="#d6bfb0"/><path d="m256 0h130v30h-130z" fill="#00c2f3"/><g fill="#d10041"><path d="m412.24 205.48-9.48 60h-146.76v-60z"/><path d="m256 0h130v30h-130z"/></g></g></svg>