<svg id="Capa_1" enable-background="new 0 0 512 512" height="512" viewBox="0 0 512 512" width="512" xmlns="http://www.w3.org/2000/svg"><g><g><path d="m138.326 86.848s19.417 9.052 19.417 35.565c0 46.508-72.283 67.601-88.442 136.52v10h373.396v-10c-27.326-68.108-96.442-93.382-96.442-136.52 0-16.234 14.912-29.825 27.417-35.565l-117.672-15z" fill="#d8ab8c"/><path d="m146.188 402.152h216.625s54.223-23.108 81.117-91.865v-10h-375.86v10c2.723 15.616 8.096 29.209 14.809 40.915 25.558 34.492 63.309 50.95 63.309 50.95z" fill="#ffe07d"/><path d="m352.59 395.152h-199.809c-4.329 0-8.597-.936-12.532-2.742-11.593-5.321-36.735-18.56-57.37-41.209 23.603 41.158 63.79 58.95 63.79 58.95l110.66 10 108.002-10s66.301-29.346 78.599-99.865l-17.184 6.703c-11.417 40.858-43.553 64.622-58.538 73.778-4.704 2.874-10.106 4.385-15.618 4.385z" fill="#ffc250"/><path d="m429.015 264.432 13.683 4.501v-10c-16.158-68.919-88.442-90.012-88.442-136.52 0-26.513 19.417-35.565 19.417-35.565l-21.496-2.74c-5.645 8.269-12.922 22.071-12.922 38.305.002 47.934 76.776 68.037 89.76 142.019z" fill="#c7865b"/><path d="m391.63 256.946c-17.257-11.576-36.996-11.576-54.252 0-17.257 11.576-36.996 11.576-54.252 0-17.257-11.576-36.996-11.576-54.252 0-17.257 11.576-36.996 11.576-54.252 0-17.257-11.576-36.996-11.576-54.252 0-16.204 10.87-34.597 11.531-51.068 1.987-2.033 8.672-3.184 18.095-3.184 28.427 0 8.081.696 15.718 1.953 22.926 16.782 10.306 35.69 9.894 52.299-1.248 17.257-11.576 36.996-11.576 54.252 0 17.257 11.576 36.996 11.576 54.252 0 17.257-11.576 36.996-11.576 54.252 0 17.257 11.576 36.996 11.576 54.252 0 17.257-11.576 36.996-11.576 54.252 0 11.117 7.458 23.265 10.103 35.115 7.952 0 0 11.137-19.509 11.137-30.629 0-7.816-8.867-21.929-8.867-21.929-12.562 2.943-25.556.449-37.385-7.486z" fill="#b2e5fb"/><path d="m442.698 258.933c-4.448 2.577-9.036 4.41-13.683 5.499 1.199 6.832 1.867 14.113 1.867 21.929 0 11.12-1.534 21.315-4.137 30.629 5.854-1.063 11.635-3.296 17.184-6.703 1.257-7.208 1.953-14.844 1.953-22.926 0-10.333-1.151-19.756-3.184-28.428z" fill="#7bd0e0"/><path d="m138.326 56.848c-8.284 0-15 6.716-15 15 7.724 8.906 246.268 7 250.348 7 7.09 0 14.456-11 9.582-18.538-2.599-2.161-5.938-3.462-9.582-3.462-4.274 0-231.074 0-235.348 0z" fill="#ffe07d"/><path d="m368.674 71.848c-4.08 0-221.832 0-245.348 0 0 8.284 6.716 15 15 15h235.348c8.284 0 15-6.716 15-15 0-4.64-2.109-8.786-5.418-11.538-1.565 6.613-7.492 11.538-14.582 11.538z" fill="#ffc250"/><path d="m476.5 447.152c15.991 0 28-22 19.959-35.281-2.081-1.093-4.446-1.719-6.959-1.719h-467c-8.284 0-15 6.716-15 15 0 4.401.956 8.577 2.658 12.342 3.654 6.049 14.941 9.658 19.342 9.658z" fill="#d8ab8c"/><path d="m496.459 411.87c-.696 15.768-10.968 28.281-26.959 28.281h-447c-4.401 0-8.577-.956-12.342-2.658 4.707 10.41 15.175 17.658 27.342 17.658h437c16.568 0 30-13.431 30-30 0-5.77-3.263-10.772-8.041-13.281z" fill="#c7865b"/></g><g><path d="m474.5 462.652h-334.32c-4.142 0-7.5-3.358-7.5-7.5s3.358-7.5 7.5-7.5h334.32c12.407 0 22.5-10.093 22.5-22.5 0-4.136-3.364-7.5-7.5-7.5h-159.805c-4.142 0-7.5-3.358-7.5-7.5s3.358-7.5 7.5-7.5h33.948c4.89-2.406 21.994-11.504 38.644-28.508 14.904-15.221 25.236-32.276 30.915-50.97-15.341 4.344-31.487 1.66-45.75-7.907-14.798-9.928-31.098-9.928-45.896 0-19.894 13.345-42.714 13.346-62.608 0-14.799-9.928-31.098-9.928-45.896 0-19.894 13.345-42.713 13.346-62.609 0-14.798-9.928-31.098-9.928-45.896 0-14.271 9.572-30.408 12.253-45.749 7.909 5.679 18.694 16.011 35.748 30.915 50.968 16.649 17.003 33.754 26.102 38.644 28.508h151.338c4.142 0 7.5 3.358 7.5 7.5s-3.358 7.5-7.5 7.5h-277.195c-4.136 0-7.5 3.364-7.5 7.5 0 12.407 10.093 22.5 22.5 22.5h72.68c4.142 0 7.5 3.358 7.5 7.5s-3.358 7.5-7.5 7.5h-72.68c-20.678 0-37.5-16.822-37.5-37.5 0-12.407 10.093-22.5 22.5-22.5h97.327c-6.475-4.735-13.675-10.705-20.832-18.014-26.416-26.977-40.378-60.615-40.378-97.277 0-44.269 20.021-72.25 37.463-91.681 2.767-3.083 7.508-3.339 10.591-.571 3.083 2.767 3.338 7.508.572 10.591-10.832 12.067-22.773 27.776-29.102 49.285 12.589 5.314 25.944 3.854 38.05-4.267 19.894-13.346 42.714-13.345 62.608 0 14.798 9.927 31.098 9.927 45.896 0 19.894-13.346 42.714-13.345 62.608 0 14.797 9.927 31.098 9.927 45.896 0 19.894-13.346 42.714-13.345 62.608 0 12.105 8.121 25.475 9.579 38.067 4.26-8.96-30.4-29.782-50.787-48.69-69.3-19.762-19.35-38.429-37.627-38.429-63.264 0-12.309 3.64-21.474 8.062-28.065h-197.635c4.422 6.591 8.062 15.756 8.062 28.065 0 25.623-19.003 44.236-37.38 62.236-2.959 2.898-7.707 2.849-10.606-.11-2.898-2.959-2.849-7.708.11-10.606 16.907-16.56 32.876-32.202 32.876-51.521 0-17.974-10.361-25.917-14.022-28.163-11.424-1.064-20.395-10.706-20.395-22.402 0-12.407 10.093-22.5 22.5-22.5h112.367c4.142 0 7.5 3.358 7.5 7.5s-3.358 7.5-7.5 7.5h-112.368c-4.136 0-7.5 3.364-7.5 7.5s3.364 7.5 7.5 7.5h235.348c4.136 0 7.5-3.364 7.5-7.5s-3.364-7.5-7.5-7.5h-92.98c-4.142 0-7.5-3.358-7.5-7.5s3.358-7.5 7.5-7.5h92.98c12.407 0 22.5 10.093 22.5 22.5 0 11.697-8.971 21.338-20.395 22.402-3.661 2.245-14.022 10.188-14.022 28.163 0 19.331 15.72 34.723 33.923 52.545 25.708 25.172 57.703 56.499 57.703 112.402 0 36.662-13.962 70.3-40.378 97.277-7.156 7.309-14.357 13.278-20.832 18.014h97.327c12.407 0 22.5 10.093 22.5 22.5 0 20.678-16.822 37.501-37.5 37.501zm-218.5-169.851c10.68 0 21.356 3.336 31.304 10.009 14.797 9.927 31.098 9.926 45.896 0 19.894-13.345 42.714-13.345 62.608 0 13.147 8.82 27.785 9.782 41.299 2.735.849-5.92 1.274-11.984 1.274-18.185 0-6.178-.438-12.017-1.255-17.551-16.485 6.025-34.19 3.752-49.675-6.635-14.798-9.928-31.098-9.928-45.896 0-19.894 13.346-42.713 13.346-62.609 0-14.798-9.928-31.098-9.928-45.896 0-19.894 13.346-42.713 13.346-62.609 0-14.798-9.928-31.098-9.928-45.896 0-15.489 10.39-33.18 12.662-49.663 6.641-.818 5.512-1.267 11.353-1.267 17.545 0 6.201.426 12.264 1.274 18.185 13.516 7.047 28.147 6.088 41.299-2.735 19.895-13.346 42.714-13.346 62.608 0 14.799 9.927 31.098 9.927 45.896 0 9.95-6.672 20.631-10.009 31.308-10.009z"/></g></g></svg>