<svg id="Layer_1" height="512" viewBox="0 0 512 512" width="512" xmlns="http://www.w3.org/2000/svg" data-name="Layer 1"><path d="m439.52 221.09c3.37 17.15 2.53 38.57-2.06 62.05-138.26 36.46-361.57 5.39-361.57 5.39-5.1-23.07-6.72-44.38-4.47-61.95 0 0 230.64 24.07 368.09-5.49z" fill="#f7d99c"/><path d="m114.51 231.21c-6-.47-12.11 1.23-18 5.27a30.664 30.664 0 0 0 13.83 55.58l-.05.48c-21.51-2.21-34.4-4.01-34.4-4.01-5.1-23.07-6.72-44.38-4.47-61.95 0 0 16.44 1.72 43.16 3.67z" fill="#ceae6f"/><path d="m110.34 292.06a30 30 0 0 0 20.65-5.06c5.18-3.55 19.4-18.54 28.75-33.28a30.693 30.693 0 0 0 2.47 30.35c5.46 8 13.51 11.7 22.28 12.13l-.13 2.27c-29.44-1.68-55.1-3.97-74.07-5.93z" fill="#f2cb7c"/><path d="m199.59 240.08a18.384 18.384 0 1 0 5.74 5.41 18.272 18.272 0 0 0 -5.74-5.41zm-12.58-3.76.08-1.99c22.57.89 47.13 1.48 72.43 1.49l-.01 2.55a28.148 28.148 0 0 0 -16.05 5.35 29.993 29.993 0 0 0 -10.28 12.13c-.3.63-.57 1.26-.82 1.91a.418.418 0 0 1 -.04.1c-3.61 7.92-14.96 28.67-27.86 34.31a45.025 45.025 0 0 1 -19.97 4.03c-8.77-.43-16.82-4.13-22.28-12.13a30.693 30.693 0 0 1 -2.47-30.35c-.01-.01 0-.01.01-.02a29.9 29.9 0 0 1 10.24-12.05 27.858 27.858 0 0 1 17.02-5.33z" fill="#ceae6f"/><path d="m184.49 296.2a45.025 45.025 0 0 0 19.97-4.03c12.9-5.64 24.25-26.39 27.86-34.31a30.688 30.688 0 0 0 3.36 28.27c5.87 8.6 14.9 12.59 24.45 12.59v2.14c-26.65-.1-52.4-1.05-75.77-2.39z" fill="#f2cb7c"/><path d="m306.74 279.78c5.66 12.42 18.14 18.32 31.05 17.21l.11 1.4c-25.9 1.88-52.25 2.57-77.77 2.47v-2.14a39.2 39.2 0 0 0 17.81-4.48c13.81-7.1 24.92-29.69 27.06-35.15a30.69 30.69 0 0 0 1.74 20.69z" fill="#f2cb7c"/><path d="m349.94 241.95a18.074 18.074 0 1 0 1.07.84c-.35-.3-.7-.58-1.07-.84zm-17.52-7.95c23.64-1.28 46.9-3.29 68.81-6.3l.28 2.06a33.525 33.525 0 0 0 -4.77 1.13 30.306 30.306 0 0 0 -20.75 23.46c-.15.75-.26 1.52-.34 2.29-3.2 18.83-16.87 34.24-28.65 38.36a38.156 38.156 0 0 1 -9.21 1.99c-12.91 1.11-25.39-4.79-31.05-17.21a30.69 30.69 0 0 1 -1.74-20.69 30.838 30.838 0 0 1 27.56-22.62z" fill="#ceae6f"/><path d="m347 295c11.78-4.12 25.45-19.53 28.65-38.36a30.666 30.666 0 0 0 1.21 12.5c4.25 13.72 16.46 21.77 29.84 20.8a636.879 636.879 0 0 1 -68.8 8.45l-.11-1.4a38.156 38.156 0 0 0 9.21-1.99z" fill="#f2cb7c"/><g fill="#5fcda4"><path d="m429.39 244.99a18.29 18.29 0 1 1 -4.7-7.7l.16.16a18.228 18.228 0 0 1 4.54 7.54z"/><path d="m355.8 249.15a18.3 18.3 0 1 1 -5.86-7.2c.37.26.72.54 1.07.84a18.3 18.3 0 0 1 4.79 6.36z"/><path d="m278.81 247.56a18.281 18.281 0 1 1 -6.79-5.99c.36.18.71.37 1.05.58a18.224 18.224 0 0 1 5.74 5.41z"/><path d="m205.33 245.49a18.267 18.267 0 1 1 -5.74-5.41 18.383 18.383 0 0 1 5.74 5.41z"/></g><path d="m177.72 473.61 156.49 1.38a25.43 25.43 0 0 0 -.73 6.05v19.96l-154.96-1.1v-19.95a24.88 24.88 0 0 0 -.81-6.34z" fill="#4689d3"/><path d="m431.88 306.41c-15.05 53.25-46.94 112.89-90.95 156.66a25.3 25.3 0 0 0 -6.72 11.92l-156.49-1.38h-.01a25.2 25.2 0 0 0 -6.64-11.63c-41.89-41.67-72.81-97.71-88.66-148.93 0 0 211.21 32.4 349.47-6.64z" fill="#5fa8ed"/><path d="m437.46 283.14c-1.48 7.57-3.34 15.35-5.58 23.27-138.26 39.04-349.47 6.64-349.47 6.64-2.58-8.33-4.76-16.53-6.52-24.52 0 0 12.89 1.8 34.4 4.01 18.97 1.96 44.63 4.25 74.07 5.93 23.37 1.34 49.12 2.29 75.77 2.39 25.52.1 51.87-.59 77.77-2.47a636.879 636.879 0 0 0 68.8-8.45 31.972 31.972 0 0 0 7.14-1.36c.03-.01.07-.02.1-.03 8.06-1.61 15.92-3.41 23.52-5.41z" fill="#eb7288"/><path d="m439.52 221.09h-.01c-12.11 2.6-24.94 4.79-38.28 6.61-21.91 3.01-45.17 5.02-68.81 6.3-24.26 1.3-48.91 1.83-72.9 1.82-25.3-.01-49.86-.6-72.43-1.49-28.04-1.11-53.01-2.66-72.51-4.08-26.72-1.95-43.16-3.67-43.16-3.67 1.28-9.93 3.79-18.66 7.62-25.85 0 0 231.32 31.35 350.33-4.65 4.85 6.64 8.2 15.11 10.15 25.01z" fill="#eb7288"/><path d="m411.05 182.38a37.3 37.3 0 0 1 18.32 13.7c-119.01 36-350.33 4.65-350.33 4.65 5-9.39 12.25-16.14 21.91-19.45 7.85-2.69 15.52-5.9 23.15-9.16l45.44-19.35s76.96 39.24 172.92 1.1l45.44 19.35c7.63 3.25 15.3 6.46 23.15 9.16z" fill="#5fa8ed"/><path d="m217.19 132.62a92.282 92.282 0 0 0 24.94 7.33 88.506 88.506 0 0 0 26.79-.29 101.994 101.994 0 0 0 25.23-7.67 142.01 142.01 0 0 0 30.56-18.93l17.75 40.81c-95.96 38.14-172.92-1.1-172.92-1.1l17.75-40.81a97.727 97.727 0 0 0 29.9 20.66z" fill="#eb7288"/><path d="m207.5 41.6 9.69 91.02a97.727 97.727 0 0 1 -29.9-20.66l-4.93-70.36z" fill="#5fcda4"/><path d="m239.39 41.6 2.74 98.35a92.282 92.282 0 0 1 -24.94-7.33l-9.69-91.02z" fill="#4ca987"/><path d="m270.23 41.6-1.31 98.05v.01a88.506 88.506 0 0 1 -26.79.29l-2.74-98.35z" fill="#5fcda4"/><path d="m300.26 41.6-6.11 90.39a101.994 101.994 0 0 1 -25.23 7.67v-.01l1.31-98.05z" fill="#4ca987"/><path d="m329.73 41.6-5.02 71.46a142.01 142.01 0 0 1 -30.56 18.93l6.11-90.39z" fill="#5fcda4"/><path d="m131.86 240.32a18.292 18.292 0 1 1 -6.71-5.94c.33.17.65.35.97.53a18.453 18.453 0 0 1 5.74 5.41z" fill="#5fcda4"/><path d="m336.51 11h-159.76a15.5 15.5 0 0 0 0 31h159.76a15.5 15.5 0 0 0 0-31z" fill="#5fa8ed"/><path d="m208.017 474.072-30.297-.072h-.01c.54 2 1.29 3.79 1.29 5.95v20.05h30v-20.05a22.722 22.722 0 0 0 -.983-5.878z" fill="#3f7aaf"/><path d="m106.734 292.17c-19.364-2.037-30.844-3.64-30.844-3.64 1.76 7.99 3.94 16.19 6.52 24.52 0 0 11.654 1.788 31.276 4.017-.433-1.341-.863-2.682-1.276-4.017q-3.286-10.61-5.676-20.88z" fill="#c66378"/><path d="m207.95 473.61a25.652 25.652 0 0 0 -6.88-11.63c-40.8-40.584-71.184-94.8-87.384-144.913-19.622-2.23-31.276-4.017-31.276-4.017 15.85 51.22 46.77 107.455 88.66 149.125a23.032 23.032 0 0 1 6.64 11.825h.01l30.3.072c-.026-.088-.047-.372-.07-.462z" fill="#4689d3"/><path d="m79.04 200.73c-3.83 7.19-6.34 15.92-7.62 25.85 0 0 10.514 1.1 28.379 2.537 2.815-10.637 6.046-21.547 7.622-25.051-17.796-1.902-28.381-3.336-28.381-3.336z" fill="#c66378"/><path d="m209.894 128.964a94.651 94.651 0 0 1 -22.6-17l-17.75 40.81a129.864 129.864 0 0 0 15.44 6.2l14.56-6.2z" fill="#c66378"/><path d="m130.95 181.28c7.85-2.69 15.52-5.9 23.15-9.16l30.88-13.15a129.864 129.864 0 0 1 -15.44-6.2l-45.44 19.35c-7.63 3.26-15.3 6.47-23.15 9.16-9.66 3.31-16.91 10.06-21.91 19.45 0 0 10.585 1.434 28.381 3.336.514-1.142 1.047-2.262 1.619-3.336 5-9.39 12.25-16.14 21.91-19.45z" fill="#4689d3"/><path d="m191.45 26.5a15.472 15.472 0 0 1 15.3-15.5h-30a15.5 15.5 0 0 0 0 31h30a15.472 15.472 0 0 1 -15.3-15.5z" fill="#4689d3"/><path d="m412.991 176.7c-7.611-2.608-15.1-5.745-22.743-9l-43.242-18.414-16.2-37.271 4.52-64.412h1.187a21.3 21.3 0 1 0 0-42.6h-159.765a21.3 21.3 0 1 0 0 42.6h.018l4.434 63.316-16.206 37.271-43.242 18.41c-7.642 3.254-15.132 6.392-22.744 9-15.984 5.478-26.971 19.4-31.773 40.25-6.99 30.361-.743 74.528 17.14 121.175 18.85 49.168 48.135 95.053 82.461 129.2a19.464 19.464 0 0 1 5.683 13.718v19.958a6 6 0 0 0 5.957 6l154.963 1.099h.042a6 6 0 0 0 6-6v-19.957a19.473 19.473 0 0 1 5.683-13.719c34.326-34.147 63.611-80.031 82.461-129.2 17.883-46.647 24.13-90.814 17.14-121.175-4.803-20.849-15.789-34.772-31.774-40.249zm-236.243-141.1a9.3 9.3 0 1 1 0-18.6h159.76a9.3 9.3 0 1 1 0 18.6zm146.544 12-4.377 62.366a145.6 145.6 0 0 1 -18.071 12l5.025-74.366zm-29.45 0-5.43 80.353a97.358 97.358 0 0 1 -13.394 4.392l1.134-84.745zm-29.691 0-1.162 86.854a81.53 81.53 0 0 1 -15.006.139l-2.423-86.993zm-28.226 85.079c-2.438-.571-4.871-1.241-7.3-2.036-2.019-.662-3.966-1.386-5.843-2.151l-8.608-80.892h19.381zm-25.887-10.558a94.236 94.236 0 0 1 -16.92-12.791l-4.318-61.73h13.311zm-20.637.028a108.1 108.1 0 0 0 34.951 19.719 94.189 94.189 0 0 0 30.008 4.95c26.888 0 50.339-11.674 67.893-24.368l12.195 28.05a225.449 225.449 0 0 1 -113 11.28 199.54 199.54 0 0 1 -44.034-12.061zm-86.5 64.8c7.992-2.739 15.7-5.967 23.556-9.311l42.965-18.3c6.374 2.877 24.064 10.071 49.64 14.2a233.433 233.433 0 0 0 37.117 2.949 238.783 238.783 0 0 0 86.158-16.158l43.212 18.4c7.853 3.344 15.564 6.572 23.555 9.311a30.705 30.705 0 0 1 9.067 4.936c-104.541 27.229-285.122 8.2-328.678 3a30.982 30.982 0 0 1 13.407-9.02zm-23.972 31.598a66.014 66.014 0 0 1 3.63-11.311c14.793 1.855 65.857 7.87 126.746 10.663q32.986 1.513 62.471 1.513c64.744 0 116.707-5.468 155.02-16.334a55.715 55.715 0 0 1 5.469 13.382c-40.1 7.989-111.068 16.089-228.065 12.465-59.687-1.85-108.906-6.11-125.839-7.7q.266-1.361.568-2.678zm336.631 43.682a12.3 12.3 0 0 1 -15.4-8.125 12.347 12.347 0 0 1 11.767-16.028 12.218 12.218 0 0 1 5.7 1.417 12.383 12.383 0 0 1 2.751 1.978c.119.117.238.231.355.351a12.365 12.365 0 0 1 -5.169 20.407zm-98.523 4.66a24.315 24.315 0 1 0 39.563-27.041l.079-.086c-.486-.449-.983-.864-1.48-1.281q12.106-.924 22.843-2.031a36.808 36.808 0 0 0 -8 17.17h-.007c-.01.082-.024.164-.035.246q-.138.81-.24 1.628c-2.765 16.572-14.746 30.345-24.741 33.842-13.657 4.777-27.458-.285-32.815-12.04a24.71 24.71 0 0 1 3.218-25.759 24.26 24.26 0 0 0 1.615 15.352zm17-21.351a12.243 12.243 0 0 1 12.37 1.269c.133.1.267.2.4.305a12.317 12.317 0 1 1 -12.769-1.574zm35.917 38.6a63.85 63.85 0 0 0 4.146-6.211 35.25 35.25 0 0 0 7.987 9.855q-8.454 1.158-17.09 2.1a59.355 59.355 0 0 0 4.96-5.745zm-142.362-30.465h-.006c-.012.032-.029.071-.042.1-.164.367-.315.739-.467 1.111-3.159 7.186-14.124 27.029-25.017 31.792-11.47 5.013-26.661 6.073-34.9-5.992a24.716 24.716 0 0 1 -1.214-25.93 24.319 24.319 0 0 0 19.8 25.034 24.535 24.535 0 0 0 4.525.423 24.108 24.108 0 0 0 13.679-4.264 24.409 24.409 0 0 0 6.336-33.838c-.243-.357-.516-.684-.775-1.025q13.884.39 26.9.565a35.981 35.981 0 0 0 -8.819 12.024zm7.182 40.753q-10.858-.253-21.365-.659a64.145 64.145 0 0 0 12.746-13.546 36.74 36.74 0 0 0 4.572 9.3 35.384 35.384 0 0 0 4.047 4.905zm-80.206-43.766c-9.031 14.2-22.574 28.381-26.973 31.4a23.987 23.987 0 0 1 -18.115 3.805 24.469 24.469 0 0 1 -15.791-10.346 24.716 24.716 0 0 1 -1.214-25.929 24.316 24.316 0 0 0 19.8 25.033 24.516 24.516 0 0 0 4.524.423 24.1 24.1 0 0 0 13.679-4.264 24.406 24.406 0 0 0 6.887-32.985c8.122.507 16.805 1 25.937 1.466a35.938 35.938 0 0 0 -8.734 11.397zm5.285 40.136c-7.7-.555-15.028-1.137-21.9-1.724a149.831 149.831 0 0 0 13.758-14.489 36.638 36.638 0 0 0 5.545 12.865 34.363 34.363 0 0 0 2.597 3.352zm-50.053-50.309a12.193 12.193 0 0 1 6.918-2.157 12.3 12.3 0 0 1 5.5 1.3c.142.073.283.145.425.221a12.328 12.328 0 1 1 -12.841.64zm73.475 5.168a12.194 12.194 0 0 1 6.925-2.155 12.292 12.292 0 0 1 5.489 1.292c.147.076.295.151.443.231a12.263 12.263 0 0 1 4.247 3.852 12.392 12.392 0 0 1 -3.21 17.179 12.28 12.28 0 0 1 -17.1-3.219 12.39 12.39 0 0 1 3.208-17.18zm56.148 11.168a24.315 24.315 0 1 0 44.338-12.646 24.762 24.762 0 0 0 -2.01-2.525q14.118-.206 27.044-.653a36.533 36.533 0 0 0 -9.405 15.953c-2.582 6.575-13.039 26.217-24.2 31.953-15.523 7.982-28.542 2.66-34.556-6.153a24.714 24.714 0 0 1 -1.209-25.929zm17.327-9.1a12.193 12.193 0 0 1 6.918-2.157 12.306 12.306 0 0 1 5.5 1.294c.144.075.288.148.433.226a12.328 12.328 0 1 1 -12.846.637zm43.622 32.343c.281.739.579 1.476.911 2.206a35.185 35.185 0 0 0 8.53 11.633q-10.936.449-21.852.659a72.413 72.413 0 0 0 12.413-14.498zm-223.572-46.937c3.148.3 7.461.692 12.812 1.15a36.408 36.408 0 0 0 -12.212 26.444 157.13 157.13 0 0 1 -.6-27.594zm2.039 38.692a36.645 36.645 0 0 0 4.936 10.458c.31.455.633.9.961 1.337q-2.23-.273-3.864-.482-1.166-5.753-2.031-11.313zm248.64 209.222v13.914l-142.962-1.01v-14c0-.091-.007-.182-.007-.273l142.972 1.253c.002.039-.001.073-.001.116zm9.219-22.227a31.3 31.3 0 0 0 -6.781 10.131l-147.927-1.3a31.24 31.24 0 0 0 -6.693-9.929c-39.469-39.262-68.251-90.218-84.267-137.404 18.385 2.453 61.592 7.641 113.991 10.049 16.544.761 34.9 1.276 54.282 1.276 52.449 0 112.341-3.777 163.783-16.683-15.521 48.956-45.107 102.798-86.386 143.86zm90.333-157.31c-70.128 19.074-158.82 19.744-221.325 16.876-58.592-2.686-105.551-8.875-118.7-10.73q-1.8-6.1-3.3-12.067c18.506 2.275 64.862 7.461 120.855 9.92 18.1.794 38.226 1.34 59.4 1.34 46.3 0 97.568-2.613 143.336-10.931a37.647 37.647 0 0 0 8.142-1.556q7.191-1.437 14.157-3.084-1.171 5.059-2.563 10.232zm7.646-40.5c-2.653 13.923-16.175 19.78-22.28 21.739q-3.187.633-6.417 1.228a22.765 22.765 0 0 1 -12.007-2.526 23.506 23.506 0 0 1 -11.387-14.083 24.729 24.729 0 0 1 -.973-9.985c.1-.579.177-1.17.255-1.762a24.667 24.667 0 0 1 7.172-13.4 24.3 24.3 0 1 0 45.9 15.973q-.12 1.397-.261 2.81zm.446-17.791a24.366 24.366 0 0 0 -3.758-7.348l.089-.075c-.7-.831-1.418-1.609-2.153-2.358-.232-.237-.47-.468-.712-.7a36.536 36.536 0 0 0 -3.194-2.771c3.229-.576 6.281-1.155 9.193-1.734a124.607 124.607 0 0 1 .96 16.558c-.123-.527-.26-1.053-.423-1.577z" fill="#284268"/></svg>