<svg id="Capa_1" enable-background="new 0 0 512 512" height="512" viewBox="0 0 512 512" width="512" xmlns="http://www.w3.org/2000/svg"><g><g><g><path d="m417.856 279.386c0-54.59-19.951-103.737-51.803-138.049-27.583-29.714-43.42-68.437-43.42-108.98v-1.209h-152.266v1.209c0 40.543-15.837 79.266-43.42 108.98-31.852 34.313-51.802 83.459-51.802 138.049 0 53.518 19.177 101.803 49.943 136.009 7.443 8.275 14.026 17.234 19.618 26.749 3.672 6.248 8.256 12.866 11.037 19.557.601 1.447-.157 2.773.401 4.238 2.531 6.652 4.608 13.492 6.196 20.486l1.452 6.396c1.551 6.831 7.623 11.68 14.628 11.68h136.162c7.005 0 13.077-4.848 14.628-11.68l1.452-6.396c6.019-26.517 19.068-50.813 37.252-71.03 30.765-34.207 49.942-82.491 49.942-136.009z" fill="#e19974"/><path d="m385.053 141.336c-27.583-29.714-43.42-68.436-43.42-108.98v-1.209h-30v1.209c0 40.544 15.837 79.266 43.42 108.98 31.852 34.313 51.803 83.459 51.803 138.049 0 53.519-19.177 101.803-49.943 136.009-18.184 20.217-31.233 44.513-37.252 71.03l-1.452 6.396c-1.551 6.831-7.623 11.68-14.628 11.68h30c7.005 0 13.077-4.848 14.628-11.68l1.452-6.396c1.588-6.995 3.665-13.836 6.196-20.488 1.38-3.627 1.119-5.51 2.764-9.019 2.094-4.468 6.174-10.524 8.677-14.781 5.592-9.512 12.173-18.469 19.615-26.742 30.766-34.206 49.943-82.49 49.943-136.009 0-54.589-19.951-103.736-51.803-138.049z" fill="#dc8758"/><circle cx="256" cy="273.608" fill="#ffe177" r="22.87"/><g fill="#b3dafe"><path d="m258.342 155.93c-1.454-.794-3.231-.794-4.685 0-11.016 6.017-18.492 17.699-18.492 31.136 0 13.436 7.476 25.119 18.492 31.136 1.454.794 3.231.794 4.685 0 11.016-6.017 18.492-17.7 18.492-31.136 0-13.437-7.476-25.119-18.492-31.136z"/><path d="m258.342 329.015c-1.454-.794-3.231-.794-4.685 0-11.016 6.017-18.492 17.699-18.492 31.136 0 13.436 7.476 25.119 18.492 31.136 1.454.794 3.231.794 4.685 0 11.016-6.017 18.492-17.7 18.492-31.136 0-13.437-7.476-25.12-18.492-31.136z"/><path d="m156.462 210.792c-1.431.834-2.35 2.356-2.421 4.011-.542 12.54 5.597 24.978 17.1 31.921s25.369 6.58 36.212.258c1.431-.834 2.349-2.356 2.421-4.011.542-12.54-5.597-24.978-17.1-31.921-11.503-6.944-25.368-6.58-36.212-.258z"/><path d="m304.646 300.235c-1.431.834-2.349 2.356-2.421 4.011-.542 12.54 5.597 24.978 17.1 31.921s25.369 6.58 36.212.258c1.431-.834 2.349-2.356 2.421-4.011.542-12.54-5.597-24.978-17.1-31.921s-25.369-6.58-36.212-.258z"/><path d="m355.538 210.792c1.431.834 2.349 2.356 2.421 4.011.542 12.54-5.597 24.978-17.1 31.921s-25.369 6.58-36.212.258c-1.431-.834-2.349-2.356-2.421-4.011-.542-12.54 5.597-24.978 17.1-31.921 11.502-6.944 25.368-6.58 36.212-.258z"/><path d="m207.354 300.235c1.431.834 2.349 2.356 2.421 4.011.542 12.54-5.597 24.978-17.1 31.921s-25.369 6.58-36.212.258c-1.431-.834-2.35-2.356-2.421-4.011-.542-12.54 5.597-24.978 17.1-31.921s25.369-6.58 36.212-.258z"/></g><path d="m350.72 54.794h-199.44c-13.06 0-23.647-10.587-23.647-23.647 0-13.06 10.587-23.647 23.647-23.647h199.44c13.06 0 23.647 10.587 23.647 23.647.001 13.06-10.587 23.647-23.647 23.647z" fill="#e8ad8c"/><path d="m360.72 7.5h-30c13.06 0 23.647 10.587 23.647 23.647 0 13.06-10.587 23.647-23.647 23.647h30c13.06 0 23.647-10.587 23.647-23.647.001-13.06-10.587-23.647-23.647-23.647z" fill="#e19974"/></g></g><g><path d="m256 303.978c16.746 0 30.37-13.624 30.37-30.37s-13.624-30.37-30.37-30.37-30.37 13.624-30.37 30.37 13.624 30.37 30.37 30.37zm0-45.74c8.476 0 15.37 6.895 15.37 15.37s-6.895 15.37-15.37 15.37c-8.476 0-15.37-6.895-15.37-15.37s6.894-15.37 15.37-15.37z"/><path d="m250.064 224.784c1.858 1.015 3.897 1.522 5.936 1.522s4.079-.508 5.938-1.523c13.815-7.545 22.397-21.998 22.397-37.718s-8.582-30.173-22.397-37.718c0-.001 0-.001-.001-.001-3.717-2.03-8.157-2.03-11.874.001-13.814 7.545-22.396 21.998-22.396 37.718s8.581 30.174 22.397 37.719zm5.936-61.546c8.261 5.079 13.334 14.08 13.334 23.828s-5.074 18.749-13.334 23.827c-8.261-5.079-13.334-14.08-13.334-23.827 0-9.748 5.074-18.75 13.334-23.828z"/><path d="m261.938 322.433c-3.72-2.032-8.159-2.031-11.875 0-13.814 7.545-22.396 21.998-22.396 37.718s8.582 30.173 22.398 37.718c1.858 1.015 3.897 1.522 5.936 1.522s4.079-.508 5.938-1.523c13.815-7.545 22.397-21.998 22.397-37.718-.002-15.719-8.584-30.172-22.398-37.717zm-5.938 61.545c-8.261-5.079-13.334-14.08-13.334-23.827s5.073-18.748 13.334-23.827c8.261 5.079 13.334 14.08 13.334 23.827s-5.074 18.749-13.334 23.827z"/><path d="m167.266 253.145c6.821 4.117 14.502 6.179 22.191 6.179 7.481 0 14.97-1.953 21.677-5.863 3.66-2.134 5.953-5.935 6.136-10.166.679-15.727-7.261-30.543-20.718-38.665-13.459-8.123-30.267-8.244-43.866-.317-3.657 2.132-5.951 5.932-6.137 10.167-.68 15.726 7.259 30.541 20.717 38.665zm21.533-35.674c8.345 5.037 13.429 14.032 13.509 23.729-8.618 4.448-18.945 4.139-27.29-.897-8.346-5.038-13.43-14.034-13.509-23.729 8.617-4.448 18.946-4.14 27.29.897z"/><path d="m315.449 342.588c6.821 4.118 14.503 6.179 22.19 6.179 7.482 0 14.969-1.952 21.674-5.862 3.661-2.133 5.955-5.935 6.138-10.166.68-15.727-7.259-30.543-20.717-38.666s-30.269-8.245-43.866-.317c-.001 0-.001 0-.001.001-3.66 2.134-5.953 5.935-6.136 10.166-.678 15.726 7.26 30.542 20.718 38.665zm21.533-35.674c8.345 5.037 13.429 14.032 13.508 23.729-8.616 4.449-18.942 4.14-27.289-.897-8.345-5.037-13.429-14.032-13.509-23.729 8.618-4.449 18.946-4.14 27.29.897z"/><path d="m300.868 253.461c6.707 3.91 14.193 5.862 21.675 5.862 7.688 0 15.37-2.062 22.19-6.179 13.459-8.123 21.397-22.939 20.718-38.665-.183-4.234-2.478-8.036-6.139-10.169-13.6-7.927-30.406-7.806-43.863.318-13.457 8.123-21.396 22.938-20.718 38.665.183 4.232 2.476 8.033 6.137 10.168zm22.333-35.99c8.345-5.037 18.672-5.346 27.289-.897-.079 9.697-5.163 18.692-13.509 23.729-8.346 5.038-18.675 5.344-27.289.897.08-9.698 5.164-18.692 13.509-23.729z"/><path d="m146.548 332.742c.185 4.23 2.479 8.029 6.137 10.163 6.708 3.91 14.193 5.862 21.676 5.862 7.688 0 15.37-2.062 22.19-6.179 13.458-8.123 21.396-22.939 20.718-38.665-.183-4.232-2.476-8.032-6.136-10.167 0 0 0 0-.001-.001-13.599-7.928-30.406-7.807-43.866.317-13.458 8.123-21.397 22.939-20.718 38.67zm28.47-25.828c8.345-5.036 18.671-5.345 27.29-.897-.08 9.697-5.164 18.692-13.509 23.729s-18.674 5.345-27.29.897c.079-9.697 5.164-18.692 13.509-23.729z"/><path d="m406.846 388.922c-3.441-2.311-8.099-1.393-10.408 2.045-4.609 6.864-9.69 13.395-15.101 19.412-11.064 12.301-20.201 25.985-27.157 40.525-1.976.562-4.128.854-6.536.854-8.645 0-12.562-3.419-17.982-8.15-6.049-5.279-13.576-11.85-27.846-11.85-14.268 0-21.795 6.57-27.844 11.85-5.42 4.731-9.336 8.15-17.979 8.15s-12.559-3.418-17.979-8.15c-6.049-5.28-13.575-11.85-27.845-11.85-14.269 0-21.796 6.571-27.844 11.85-5.42 4.731-9.336 8.15-17.978 8.15-2.404 0-4.553-.292-6.528-.853-6.956-14.541-16.093-28.226-27.158-40.527-30.965-34.428-48.019-80.949-48.019-130.993 0-24.514 4.113-48.281 12.227-70.64 1.413-3.894-.598-8.195-4.491-9.608-3.896-1.413-8.196.6-9.608 4.492-8.711 24.004-13.127 49.492-13.127 75.756 0 53.754 18.42 103.838 51.866 141.024 17.635 19.605 29.915 43.007 35.515 67.674l1.452 6.396c2.341 10.315 11.364 17.52 21.941 17.52h155.162c10.577 0 19.601-7.204 21.941-17.519l1.453-6.396c5.599-24.668 17.879-48.069 35.515-67.675 5.881-6.541 11.398-13.632 16.4-21.08 2.311-3.438 1.396-8.098-2.042-10.407zm-65.95 102.238c-.781 3.438-3.789 5.84-7.314 5.84h-155.163c-3.525 0-6.533-2.401-7.313-5.839l-1.452-6.396c-1.382-6.087-3.151-12.096-5.251-18.008 14.232-.017 21.749-6.576 27.79-11.848 5.42-4.732 9.336-8.15 17.979-8.15 8.644 0 12.56 3.418 17.98 8.15 6.048 5.279 13.574 11.85 27.843 11.85 14.268 0 21.796-6.57 27.844-11.85 5.42-4.731 9.336-8.15 17.978-8.15 8.645 0 12.562 3.419 17.983 8.15 6.041 5.274 13.561 11.834 27.801 11.848-2.1 5.911-3.869 11.92-5.251 18.007z"/><path d="m390.55 136.234c-19.567-21.079-32.72-46.517-38.345-73.939h8.516c17.174 0 31.146-13.973 31.146-31.147 0-17.175-13.972-31.148-31.146-31.148h-134.57c-4.143 0-7.5 3.358-7.5 7.5s3.357 7.5 7.5 7.5h134.569c8.903 0 16.146 7.244 16.146 16.147s-7.243 16.147-16.146 16.147h-209.441c-8.903 0-16.146-7.244-16.146-16.147s7.243-16.147 16.146-16.147h42.186c4.143 0 7.5-3.358 7.5-7.5s-3.357-7.5-7.5-7.5h-42.186c-17.174 0-31.146 13.973-31.146 31.147s13.973 31.147 31.146 31.147h8.516c-5.625 27.423-18.778 52.86-38.345 73.939-10.065 10.842-18.973 23.093-26.475 36.411-2.033 3.609-.756 8.183 2.854 10.216 1.163.655 2.427.967 3.674.967 2.62 0 5.164-1.376 6.541-3.82 6.926-12.293 15.135-23.587 24.4-33.568 22.161-23.874 36.837-52.876 42.648-84.145h161.815c5.811 31.269 20.489 60.271 42.648 84.145 31.648 34.092 49.8 82.55 49.8 132.947 0 29.307-6.121 58.4-17.702 84.134-1.7 3.777-.017 8.218 3.761 9.918.999.45 2.045.663 3.074.663 2.86 0 5.593-1.646 6.843-4.424 12.446-27.655 19.024-58.877 19.024-90.29 0-54.141-19.611-106.318-53.805-143.153z"/></g></g></svg>