<svg id="Capa_1" enable-background="new 0 0 512 512" height="512" viewBox="0 0 512 512" width="512" xmlns="http://www.w3.org/2000/svg"><path d="m309.504 504.485s57.625-131.515 64.129-229.389c6.503-97.873-65.035-115.117-65.035-163.947 0-48.831 23.612-103.635 23.612-103.635h-152.426s23.612 54.804 23.612 103.635-71.538 66.074-65.035 163.947 64.128 229.389 64.128 229.389z" fill="#98d72a"/><path d="m308.598 111.149c0-48.831 23.612-103.635 23.612-103.635h-18.035s-23.612 54.804-23.612 103.635 71.538 66.074 65.035 163.947-64.128 229.389-64.128 229.389h18.035s57.625-131.515 64.129-229.389c6.502-97.873-65.036-115.116-65.036-163.947z" fill="#8bc727"/><path d="m191.877 41.992h128.24c5.997-20.325 12.093-34.478 12.093-34.478h-152.426c0 .001 6.096 14.153 12.093 34.478z" fill="#ffe2cb"/><path d="m314.175 7.515s-6.096 14.153-12.093 34.478h18.035c5.997-20.325 12.093-34.478 12.093-34.478z" fill="#efc89d"/><path d="m347.483 400.721c-3.955-1.25-8.18.94-9.432 4.897-13.693 43.26-28.358 79.118-33.51 91.353h-97.085c-10.008-23.802-55.92-136.96-61.596-222.372-.752-11.318-.436-22.116.938-32.096.567-4.111-2.307-7.904-6.419-8.47-4.116-.569-7.904 2.308-8.47 6.419-1.514 10.987-1.866 22.811-1.046 35.143 2.74 41.238 14.476 92.816 34.881 153.3 15.149 44.906 29.717 78.274 29.863 78.606 1.198 2.733 3.899 4.499 6.883 4.499h107.014c2.984 0 5.685-1.766 6.883-4.499.186-.426 18.854-43.203 35.993-97.348 1.252-3.956-.94-8.179-4.897-9.432z"/><path d="m339.658 157.604c-13.155-16.399-23.546-29.353-23.546-46.455 0-46.66 22.77-100.128 22.999-100.661 2.102-4.878-1.598-10.488-6.901-10.488h-152.425c-5.301 0-9 5.609-6.902 10.486.23.535 23 54.003 23 100.663 0 17.102-10.39 30.056-23.546 46.455-11.663 14.539-24.882 31.019-33.332 54.093-1.427 3.897.575 8.213 4.472 9.64 3.895 1.428 8.213-.574 9.64-4.472 7.603-20.761 19.468-35.552 30.943-49.857 13.808-17.214 26.851-33.474 26.851-55.859 0-21.154-4.192-43.153-9.09-61.642h62.4c4.15 0 7.515-3.364 7.515-7.515s-3.365-7.515-7.515-7.515h-66.736c-2.414-7.747-4.759-14.398-6.646-19.448h130.318c-1.887 5.05-4.232 11.701-6.646 19.448h-20.23c-4.15 0-7.515 3.364-7.515 7.515s3.364 7.515 7.515 7.515h15.894c-4.898 18.489-9.091 40.489-9.091 61.642 0 22.385 13.043 38.645 26.851 55.859 19.631 24.472 41.88 52.209 38.2 107.59-1.9 28.586-8.469 63.04-19.525 102.407-1.065 3.79 1.078 7.864 4.801 9.14 4.03 1.382 8.518-.98 9.669-5.077 11.337-40.366 18.083-75.853 20.051-105.475 4.068-61.216-21.183-92.695-41.473-117.989z"/></svg>