<svg id="Layer_1" height="512" viewBox="0 0 512 512" width="512" xmlns="http://www.w3.org/2000/svg" data-name="Layer 1"><path d="m164 427.17v68.83h184v-68.84z" fill="#86bdce"/><path d="m164 427h30v69h-30z" fill="#618a93"/><path d="m400.97 212.48c-7.47-27.91-19.81-52.985-35.73-73.565a88.235 88.235 0 0 1 -17.16-69.915h-187.47l1.08 8.615a89.223 89.223 0 0 1 -17.15 64.237c-20.98 28.271-35.36 64.554-39.99 104.814a247.489 247.489 0 0 0 -1.61 28.252 244.02 244.02 0 0 0 4.5 46.881c8.59 43.94 28.97 81.97 56.65 108.371 25.6 24.419 57.42 38.89 91.91 38.89s66.31-14.48 91.91-38.9c34.41-32.83 57.56-83.64 60.76-141.42q.39-6.855.39-13.83a241.319 241.319 0 0 0 -8.09-62.43z" fill="#53d8d8"/><path d="m194.09 430.169c-27.68-26.4-48.06-64.43-56.65-108.37a244.02 244.02 0 0 1 -4.5-46.881 247.489 247.489 0 0 1 1.61-28.252c4.63-40.26 19.01-76.544 39.99-104.814a89.223 89.223 0 0 0 17.15-64.237l-1.08-8.615h-30l1.08 8.615a89.223 89.223 0 0 1 -17.15 64.237c-20.98 28.27-35.36 64.554-39.99 104.814a247.489 247.489 0 0 0 -1.61 28.252 244.02 244.02 0 0 0 4.5 46.881c8.59 43.94 28.97 81.97 56.65 108.37 25.6 24.42 57.42 38.891 91.91 38.891a122.375 122.375 0 0 0 15-.93c-28.695-3.541-55.068-17.125-76.91-37.961z" fill="#42a09d"/><path d="m358.04 16-9.85 52.4c-.04.21-.08.42-.11.63h-187.47l-6.65-53.03z" fill="#49b7b4"/><path d="m409.06 274.91q0 6.975-.39 13.83a26.992 26.992 0 0 0 -11.02-2.2c-28.33 0-28.33 36.06-56.67 36.06s-28.33-36.06-56.66-36.06-28.33 36.06-56.66 36.06-28.33-36.06-56.66-36.06-28.33 36.06-56.66 36.06a28.655 28.655 0 0 1 -6.9-.8 244.009 244.009 0 0 1 -4.5-46.88 247.454 247.454 0 0 1 1.61-28.25 27.373 27.373 0 0 0 9.79 1.7c28.33 0 28.33-36.06 56.66-36.06s28.33 36.06 56.66 36.06 28.33-36.06 56.66-36.06 28.33 36.06 56.66 36.06 28.34-36.06 56.67-36.06a32.194 32.194 0 0 1 3.32.17 241.319 241.319 0 0 1 8.09 62.43z" fill="#a0eaea"/><path d="m153.96 16 6.65 53h30l-6.65-53z" fill="#3b7f7c"/><path d="m132.94 274.918a247.489 247.489 0 0 1 1.61-28.252q.459-3.995 1.049-7.933c-5.3 5.483-11.649 9.637-21.259 9.637a27.373 27.373 0 0 1 -9.79-1.7 247.454 247.454 0 0 0 -1.61 28.25 244.009 244.009 0 0 0 4.5 46.88 28.655 28.655 0 0 0 6.9.8c9.766 0 16.164-4.286 21.518-9.9a245.481 245.481 0 0 1 -2.918-37.782z" fill="#83bab9"/><g fill="#f4f8fc"><path d="m157.152 176.073a6 6 0 0 1 -5.347-8.714 202.463 202.463 0 0 1 17.916-29.076 84.157 84.157 0 0 0 14.345-30.556 6 6 0 1 1 11.665 2.815 96.1 96.1 0 0 1 -16.374 34.892 190.406 190.406 0 0 0 -16.848 27.35 6 6 0 0 1 -5.357 3.289z"/><path d="m192.273 98.557c-.094 0-.189 0-.283-.007a6 6 0 0 1 -5.715-6.273c.061-1.308.091-2.632.089-3.934a6 6 0 0 1 5.989-6.01h.011a6 6 0 0 1 6 5.99c0 1.493-.032 3.012-.1 4.513a6 6 0 0 1 -5.991 5.721z"/></g></svg>