<svg id="Layer_1" enable-background="new 0 0 512 512" height="512" viewBox="0 0 512 512" width="512" xmlns="http://www.w3.org/2000/svg"><g><g><g fill="#56b6de"><path d="m157.343 15.027c-45.691 0-82.731 37.04-82.731 82.731s37.04 82.731 82.731 82.731 82.731-37.04 82.731-82.731-37.04-82.731-82.731-82.731zm0 139.462c-31.282 0-56.731-25.449-56.731-56.731s25.449-56.731 56.731-56.731 56.731 25.449 56.731 56.731-25.449 56.731-56.731 56.731z"/><path d="m354.676 15.027c-45.691 0-82.731 37.04-82.731 82.731s37.04 82.731 82.731 82.731 82.731-37.04 82.731-82.731-37.04-82.731-82.731-82.731zm0 139.462c-31.282 0-56.731-25.449-56.731-56.731s25.449-56.731 56.731-56.731 56.731 25.449 56.731 56.731-25.449 56.731-56.731 56.731z"/></g><g><g><path d="m352.285 504.5h-192.551c-8.284 0-15-6.716-15-15v-10.591c0-8.284 6.716-15 15-15h192.551c8.284 0 15 6.716 15 15v10.591c0 8.284-6.715 15-15 15z" fill="#56b6de"/><path d="m352.285 463.909h-40c8.284 0 15 6.716 15 15v10.591c0 8.284-6.716 15-15 15h40c8.284 0 15-6.716 15-15v-10.591c0-8.284-6.715-15-15-15z" fill="#3baad9"/><path d="m256.01 103.403c-93.65 0-169.568 52.573-169.568 145.587 0 104.972 78.727 214.918 78.727 214.918h181.683s78.727-109.946 78.727-214.918c-.001-93.013-75.919-145.587-169.569-145.587z" fill="#f2f2f2"/><path d="m256.01 103.404c-6.767 0-13.44.275-20 .819 84.224 6.99 149.568 58.475 149.568 144.768 0 104.972-78.727 214.918-78.727 214.918h40s78.727-109.946 78.727-214.918c0-93.014-75.918-145.587-169.568-145.587z" fill="#ebebeb"/></g><g><path d="m425.578 248.991c0-12.582-1.39-24.424-4.024-35.496-10.091 13.231-21.849 21.441-36.909 26.527-14.867 5.022-27.278 4.865-42.081-.142-26.458-8.949-42.721-27.962-57.934-67.676-9.816-25.624-47.413-25.803-57.24.001-15.131 39.73-31.489 58.743-58.355 67.817-13.575 4.582-27.57 4.493-41.122-.032-15.22-5.084-27.075-13.464-37.29-27.145-2.736 11.258-4.18 23.317-4.18 36.146 0 1.089.009 2.179.025 3.269 8.986 6.989 19.416 12.653 31.728 16.766 0 17.187-9.943 32.054-24.396 39.172 2.374 10.115 5.222 20.068 8.395 29.749 18.965-7.632 34.079-22.86 41.548-41.892 1.712-4.362 7.828-4.42 9.536-.056 7.875 20.115 24.287 35.989 44.762 43.148 11.449 24.532 35.417 41.041 41.401 44.884 9.998 6.42 23.14 6.42 33.138 0 5.983-3.842 29.953-20.352 41.401-44.884 20.444-7.149 37.341-22.986 45.529-43.058 1.73-4.241 7.784-4.126 9.468.134 7.418 18.767 22.277 33.815 40.924 41.496 3.173-9.7 6.019-19.672 8.387-29.805-14.145-7.225-23.829-21.927-23.829-38.888 12.012-4.057 22.241-9.564 31.087-16.324.02-1.238.031-2.475.031-3.711zm-136.095 63.683c0 24.107-33.473 45.602-33.473 45.602s-33.473-21.495-33.473-45.602c-24.128 0-43.688-19.542-43.688-43.648 41.49-14.013 61.706-45.316 77.161-85.878 15.501 40.465 35.625 72.002 77.161 85.878 0 24.106-19.56 43.648-43.688 43.648z" fill="#56b6de"/><g fill="#ffdb21"><path d="m148.491 206.733c12.54-.384 24.067-7.719 28.62-19.674 15.131-39.73 31.489-58.742 58.355-67.816 13.674-4.615 27.506-4.515 41.122.032 31.397 10.488 47.134 38.586 58.319 67.785 4.54 11.85 15.921 19.673 28.62 19.673h.027c12.69 0 24.08-7.825 28.592-19.674 2.761-7.25 5.563-13.809 8.462-19.745-6.342-8.82-13.759-16.779-22.095-23.844-5.659 9.98-10.522 20.927-14.987 32.647-9.327-24.349-20.328-45.465-36.661-61.446-21.561-7.432-45.562-11.267-70.857-11.267-25.27 0-49.25 3.828-70.795 11.246-16.375 15.959-27.414 37.033-36.724 61.467-4.479-11.694-9.345-22.642-15.002-32.634-8.338 7.068-15.756 15.031-22.098 23.856 2.899 5.929 5.707 12.48 8.481 19.721 4.541 11.85 15.923 19.673 28.621 19.673z"/><path d="m148.309 389.254s33.473 21.495 33.473 45.602c18.214 0 34.854 11.809 40.976 29.053h66.292c6.01-16.929 22.181-29.053 41.185-29.053 0-24.107 33.474-45.602 33.474-45.602s9.369 6.017 18.194 15.253c4.589-9.05 9.256-18.879 13.749-29.302-6.842-6.018-12.788-10.045-15.375-11.706-9.998-6.42-23.14-6.42-33.138 0-5.983 3.842-29.953 20.352-41.401 44.884-20.158 7.048-37.326 22.95-45.529 43.058-1.614 3.957-7.731 3.766-9.17.091-7.875-20.115-24.287-35.989-44.762-43.148-11.449-24.532-35.417-41.041-41.401-44.884-9.998-6.42-23.14-6.42-33.138 0-2.586 1.661-8.532 5.688-15.375 11.706 4.493 10.423 9.161 20.252 13.749 29.302 8.828-9.237 18.197-15.254 18.197-15.254z"/></g></g><path d="m344.155 48.091h-176.291c-8.284 0-15-6.716-15-15v-10.591c0-8.284 6.716-15 15-15h176.291c8.284 0 15 6.716 15 15v10.591c0 8.284-6.715 15-15 15z" fill="#ffdb21"/><path d="m344.155 7.5h-40c8.284 0 15 6.716 15 15v10.591c0 8.284-6.716 15-15 15h40c8.284 0 15-6.716 15-15v-10.591c0-8.284-6.715-15-15-15z" fill="#ffcc21"/><path d="m174.281 48.091h163.457v70.718h-163.457z" fill="#dbdbdb"/><path d="m297.738 48.091h40v70.718h-40z" fill="#cfcfcf"/></g></g><g><path d="m425.757 308.596c10.839-47.145 11.833-97.84-15.257-139.941 64.396-51.017 32.591-154.797-49.363-160.9-4.128-4.748-10.211-7.755-16.982-7.755h-176.291c-6.772 0-12.854 3.007-16.982 7.755-82.12 6.316-113.706 109.651-49.362 160.899-52.225 87.28-1.034 209.129 50.483 289.124-8.61 3.16-14.769 11.44-14.769 21.131v10.591c0 12.407 10.093 22.5 22.5 22.5h132.601c9.92-.341 9.934-14.654 0-15h-132.6c-4.136 0-7.5-3.364-7.5-7.5v-10.591c0-4.136 3.364-7.5 7.5-7.5h192.551c4.136 0 7.5 3.364 7.5 7.5v10.591c0 4.136-3.364 7.5-7.5 7.5h-20.047c-9.955.353-9.9 14.669 0 15h20.047c12.406 0 22.5-10.093 22.5-22.5v-10.591c0-9.691-6.159-17.971-14.768-21.131 26.847-41.433 53.773-100.28 65.739-149.182zm-33.205 54.381c-3.531-2.689-6.422-4.634-8.221-5.788-12.527-8.044-28.715-8.043-41.242 0-7.015 4.505-30.203 20.713-42.767 45.208-19.294 7.599-35.535 22.521-44.671 40.931-8.931-18.697-24.604-33.326-43.956-40.932-12.565-24.498-35.751-40.702-42.766-45.207-12.527-8.044-28.715-8.043-41.243 0-1.798 1.155-4.688 3.099-8.22 5.788-2.771-6.816-5.441-13.847-7.941-21.043 16.141-8.22 29.231-21.666 36.992-38.043 8.905 18.848 24.644 33.596 44.104 41.244 12.562 24.494 35.75 40.701 42.765 45.207 12.527 8.044 28.716 8.044 41.242 0 7.015-4.505 30.202-20.713 42.765-45.204 19.643-7.694 35.629-22.409 44.787-41.144 7.676 16.127 20.557 29.438 36.406 37.663-2.525 7.292-5.227 14.416-8.034 21.32zm-12.928 29.036c-6.373-5.522-11.563-8.878-11.861-9.069-2.469-1.585-5.637-1.585-8.105 0-1.378.885-31.101 20.24-36.185 44.862-17.057 2.276-31.954 13.053-39.413 28.604h-18.04c.444-.664.825-1.377 1.135-2.135 7.286-17.86 22.636-32.369 41.061-38.812 1.908-.667 3.466-2.076 4.32-3.908 10.731-22.996 34.085-38.808 38.658-41.744 7.486-4.808 17.546-4.806 25.032 0 1.678 1.078 5.518 3.646 10.24 7.459-2.258 5.076-4.55 9.998-6.842 14.743zm-151.871 64.396c-7.442-15.538-22.26-26.31-39.206-28.599-5.081-24.624-34.807-43.981-36.186-44.867-2.47-1.585-5.636-1.585-8.105 0-.298.192-5.488 3.547-11.86 9.069-2.292-4.744-4.584-9.667-6.842-14.743 4.723-3.814 8.561-6.381 10.239-7.458 7.486-4.808 17.547-4.808 25.033 0 4.572 2.936 27.924 18.746 38.657 41.744.855 1.832 2.413 3.241 4.321 3.908 18.454 6.453 33.126 20.596 40.254 38.804.298.761.671 1.477 1.109 2.143h-17.414zm148.198-162.942c-1.908-4.831-6.503-7.97-11.705-7.999-5.148-.031-9.741 3.029-11.682 7.789-7.286 17.859-22.636 32.368-41.061 38.811-1.908.667-3.466 2.076-4.32 3.908-10.73 22.993-34.086 38.808-38.658 41.745-7.485 4.808-17.545 4.808-25.032 0-4.572-2.937-27.926-18.751-38.657-41.745-.855-1.832-2.413-3.241-4.321-3.908-18.454-6.453-33.126-20.596-40.254-38.803-1.904-4.864-6.5-8.008-11.707-8.01h-.005c-5.24 0-9.868 3.164-11.789 8.061-5.701 14.525-16.4 26.627-29.951 34.141-1.56-5.131-3.016-10.326-4.347-15.568 14.468-9.379 23.232-25.304 23.232-42.863 0-3.226-2.063-6.091-5.124-7.113-9.96-3.328-18.706-7.735-26.628-13.426.02-6.587.435-12.998 1.243-19.225 8.612 8.096 18.513 13.888 30.351 17.842 15.04 5.024 30.911 5.083 45.897.024 13.826-4.669 25.152-11.905 34.626-22.12 6.501-7.516-4.002-17.244-10.998-10.2-7.838 8.452-16.872 14.206-28.426 18.109-11.956 4.035-24.185 4.022-36.347-.041-13.043-4.357-22.885-11.126-31.5-21.746 2.697-9.913 6.514-19.273 11.439-28.039.877 2.13 1.755 4.343 2.64 6.652 5.635 14.717 20.082 24.596 35.854 24.487 16.022-.491 29.917-10.108 35.398-24.501 14.225-37.352 29.294-55.122 53.747-63.38.037-.012.073-.026.11-.039h36.013c.074.027.148.054.224.079 29.733 9.932 43.826 37.6 53.691 63.354 5.612 14.648 19.929 24.49 35.651 24.49 15.712 0 30.019-9.848 35.602-24.505.879-2.309 1.753-4.522 2.626-6.652 5.026 8.943 8.899 18.503 11.605 28.638-8.503 10.241-18.238 16.844-31.144 21.203-13.098 4.425-23.899 4.384-37.277-.141-24.061-8.138-39.014-25.873-53.333-63.255-5.61-14.646-19.612-24.102-35.681-24.102h-.04c-16.011.016-29.958 9.482-35.533 24.117-1.502 3.946-3.029 7.707-4.536 11.177-1.65 3.799.091 8.217 3.891 9.867 3.8 1.651 8.217-.092 9.867-3.891 1.599-3.68 3.212-7.655 4.796-11.815 4.055-10.646 13.78-14.448 21.529-14.456h.023c7.804 0 17.588 3.8 21.675 14.468 16.134 42.12 33.667 62.334 62.535 72.098 16.469 5.568 30.489 5.682 46.883.143 11.634-3.929 21.376-9.567 29.854-17.362.781 6.194 1.175 12.569 1.179 19.118-7.763 5.478-16.31 9.757-26.019 13.037-3.049 1.029-5.101 3.888-5.101 7.105 0 17.274 8.559 33.067 22.69 42.502-1.329 5.26-2.786 10.474-4.346 15.624-13.24-7.51-23.72-19.444-29.349-33.684zm-281.257-26.694c4.928 2.814 10.122 5.27 15.64 7.396-1.189 8.424-5.273 16.042-11.508 21.659-1.906-9.62-3.328-19.338-4.132-29.055zm72.087-211.208v58.329c-13.69 6.179-26.614 14.188-38.123 23.851-36.425-26.284-21.404-83.913 23.147-88.909 3.85 3.925 9.124 6.45 14.976 6.729zm193.434-6.731c44.586 4.966 59.552 62.645 23.146 88.911-11.442-9.675-24.476-17.692-38.123-23.852v-58.328c5.853-.279 11.127-2.804 14.977-6.731zm-178.434 62.475v-20.359h148.457v20.359zm145.734 15c11.026 12.745 20.052 29.107 29.009 52.491 1.111 2.901 3.897 4.817 7.004 4.817h.007c3.109-.003 5.895-1.924 7.002-4.83 3.317-8.708 6.647-16.405 10.083-23.297 4.06 3.988 7.823 8.219 11.281 12.688-2.281 4.953-4.509 10.297-6.761 16.211-3.382 8.878-12.056 14.844-21.611 14.844-9.525 0-18.212-5.97-21.616-14.856-7.579-19.785-18.379-42.493-37.372-58.068zm24.051 7.551c6.195 3.477 11.997 7.305 17.396 11.476-1.847 3.534-3.657 7.26-5.442 11.205-3.83-8.462-7.773-15.95-11.954-22.681zm-21.328-57.91h-148.457v-20.359h148.457zm-169.737 57.884c-4.214 6.774-8.193 14.305-12.014 22.729-1.791-3.952-3.602-7.68-5.447-11.212 5.417-4.188 11.241-8.03 17.461-11.517zm-29.118 21.673c3.429 6.88 6.766 14.575 10.105 23.293 1.112 2.901 3.897 4.817 7.004 4.817h.007c3.109-.003 5.895-1.924 7.001-4.83 8.765-23.005 18.038-39.789 29.027-52.478h22.269c-14.845 12.056-26.121 30.319-36.693 58.081-3.306 8.68-11.825 14.496-21.724 14.843-9.481-.047-18.113-6.005-21.503-14.855-2.26-5.9-4.492-11.232-6.773-16.177 3.457-4.472 7.219-8.705 11.28-12.694zm270.935 118.645c5.274-2.047 10.249-4.39 14.98-7.054-.795 9.438-2.17 18.877-4.005 28.227-5.93-5.575-9.819-13.01-10.975-21.173zm6.299-228.835c30.883 30.657 27.38 84.679-6.923 111.177-2.311-2.849-4.742-5.615-7.292-8.294 29.486-22.485 32.883-68.642 6.478-95.023-9.359-9.697-21.287-16.103-34.278-18.543.251-3.698.087-7.459.053-11.162 15.908 2.537 30.547 10.105 41.962 21.845zm-240.753-30.317h176.291c4.136 0 7.5 3.364 7.5 7.5v10.591c0 3.923-3.129 7.5-7.5 7.5h-176.291c-4.135 0-7.5-3.364-7.5-7.5v-10.591c0-3.899 3.126-7.5 7.5-7.5zm-85.752 82.758c-.666-36.001 27.762-69.214 63.252-74.285-.034 3.7-.198 7.459.052 11.154-53.73 9.863-71.003 79.606-27.799 113.573-2.549 2.678-4.98 5.444-7.291 8.292-17.769-14.234-28.214-35.769-28.214-58.734zm57.251 308.158c3.351-3.124 6.559-5.685 8.95-7.478 2.966 2.223 7.193 5.635 11.423 9.874 6.636 6.651 14.546 16.654 14.546 26.543 0 4.142 3.358 7.5 7.5 7.5 11.084 0 21.623 5.451 28.377 14.053h-41.05c-4.752-7.028-16.721-25.397-29.746-50.492zm162.229 50.493c6.735-8.687 17.25-14.053 28.645-14.053 4.143 0 7.5-3.358 7.5-7.5 0-14.108 16.158-29.128 25.946-36.435 2.394 1.794 5.612 4.362 8.974 7.495-13.024 25.095-24.993 43.463-29.745 50.492h-41.32z"/><path d="m335.548 261.912c-41.658-13.917-59.48-47.37-72.534-81.448-1.111-2.901-3.897-4.817-7.004-4.817h-.007c-3.109.003-5.895 1.924-7.001 4.83-17.685 46.415-38.705 70.011-72.553 81.443-3.048 1.029-5.1 3.888-5.1 7.105 0 25.905 19.374 47.374 44.403 50.701 1.984 9.847 8.086 19.937 18.212 30.085 8.84 8.86 17.624 14.537 17.994 14.774 2.469 1.585 5.636 1.585 8.105 0 .369-.237 9.153-5.915 17.993-14.774 10.127-10.149 16.229-20.239 18.212-30.085 25.029-3.327 44.403-24.795 44.403-50.701 0-3.226-2.064-6.09-5.123-7.113zm-46.065 43.262c-4.143 0-7.5 3.358-7.5 7.5 0 14.111-16.163 29.132-25.951 36.438-2.967-2.223-7.208-5.642-11.451-9.895-6.636-6.65-14.546-16.654-14.546-26.543 0-4.142-3.358-7.5-7.5-7.5-18.214 0-33.328-13.509-35.826-31.024 33.622-13.101 54.075-37.701 69.299-71.419 13.103 28.956 32.644 57.217 69.297 71.431-2.502 17.507-17.613 31.012-35.822 31.012z"/><path d="m255.687 307.406c-9.652 0-9.668 15 0 15 9.652 0 9.667-15 0-15z"/><path d="m214.033 276.21c-9.652 0-9.668 15 0 15 9.652 0 9.668-15 0-15z"/><path d="m297.986 291.21c9.652 0 9.668-15 0-15-9.652 0-9.668 15 0 15z"/><path d="m284.633 265.365c-.112-.081-11.325-8.301-22.625-23.353-2.807-3.953-9.189-3.953-11.996 0-11.205 14.926-22.522 23.278-22.625 23.353-3.352 2.433-4.097 7.123-1.664 10.475 3.263 3.466 6.755 4.021 10.475 1.664.329-.238 5.275-3.863 11.989-10.568v26.356c0 4.142 3.358 7.5 7.5 7.5s7.5-3.358 7.5-7.5v-27.004c7.039 7.119 12.294 10.97 12.633 11.216 3.351 2.432 8.042 1.689 10.476-1.663 2.433-3.352 1.688-8.042-1.663-10.476z"/></g></g></svg>