<svg id="Capa_1" enable-background="new 0 0 512.062 512.062" height="512" viewBox="0 0 512.062 512.062" width="512" xmlns="http://www.w3.org/2000/svg"><g><g><path d="m367.309 170.619c-14.597-11.872-21.989-30.494-19.642-49.162 4.349-34.604 11.439-74.72 11.439-74.72h-206.154s7.09 40.116 11.439 74.72c2.346 18.668-5.045 37.291-19.642 49.162-96.602 78.566-34.119 218.478 25.356 298.219 0 0 27.694 35.73 28.427 35.73h114.993c.733.001 28.427-35.73 28.427-35.73 59.476-79.74 121.958-219.653 25.357-298.219z" fill="#ecbba3"/></g><g><path d="m341.952 468.836s-27.698 35.732-28.428 35.732h-19.655c.729 0 28.428-35.732 28.428-35.732 59.474-79.738 119.536-215.791 22.93-294.36-14.599-11.871-19.563-34.355-17.225-53.02 4.357-34.603 11.441-74.722 11.441-74.722h19.665s-7.094 40.119-11.441 74.722c-2.348 18.666 5.046 37.291 19.645 49.162 96.596 78.568 34.114 218.48-25.36 298.218z" fill="#e8ad8c"/></g><g><path d="m371.166 46.737h-230.275c-10.836 0-19.621-8.785-19.621-19.621 0-10.836 8.785-19.621 19.621-19.621h230.275c10.836 0 19.621 8.785 19.621 19.621.001 10.836-8.784 19.621-19.621 19.621z" fill="#dc8758"/></g><g><path d="m390.784 27.118c0 5.416-2.198 10.322-5.746 13.869-3.547 3.547-8.453 5.746-13.869 5.746h-19.984c5.416 0 10.322-2.198 13.869-5.746 3.547-3.547 5.746-8.453 5.746-13.869 0-10.842-8.783-19.625-19.615-19.625h19.984c10.832.001 19.615 8.784 19.615 19.625z" fill="#c86d36"/></g><g><path d="m409.703 334.188c-5.588 1.963-11.587 3.024-17.836 3.024-16.955 0-32.067-7.851-41.941-20.089-8.673 18.126-27.18 30.655-48.621 30.655-18.998 0-35.692-9.854-45.276-24.716-9.584 14.862-26.278 24.716-45.276 24.716-21.441 0-39.948-12.528-48.621-30.655-9.875 12.238-24.986 20.089-41.941 20.089-6.249 0-12.258-1.062-17.836-3.024-12.568-47.85-11.587-96.651 16.524-136.199 90.482 17.976 183.818 17.966 274.29-.02 28.121 39.558 29.102 88.359 16.534 136.219z" fill="#fdf6ec"/></g><g><path d="m417.384 282.041c-.138 6.961-.675 13.83-1.529 20.764-.434 3.519-.951 6.959-1.569 10.452-1.035 5.846-2.253 11.665-3.697 17.446-.29 1.159-.579 2.328-.889 3.487-5.586 1.958-11.581 3.018-17.836 3.018-1.069 0-2.128-.03-3.187-.09 12.37-47.323 11.082-95.636-17.327-135.175 7.294-1.209 14.569-2.538 21.823-3.977.05.08.11.15.16.23 2.798 4.471 5.91 8.944 8.464 13.73 1.263 2.367 2.444 4.779 3.547 7.224 3.629 8.04 6.421 16.479 8.374 25.091.779 3.437 1.429 6.905 1.958 10.402 1.369 9.044 1.889 18.238 1.708 27.398z" fill="#fef1da"/></g><g><g><circle cx="207.371" cy="275.241" fill="#b3dafe" r="25.464"/></g><g><circle cx="304.686" cy="275.241" fill="#b3dafe" r="25.464"/></g></g><g><path d="m135.763 266.479c0 14.06-11.407 25.467-25.467 25.467-5.819 0-11.186-1.953-15.473-5.248-.651-14.571.411-28.922 3.575-42.732 3.545-1.883 7.601-2.954 11.897-2.954 14.062 0 25.468 11.406 25.468 25.467z" fill="#b3dafe"/></g><g><path d="m417.224 286.708c-4.286 3.285-9.644 5.238-15.462 5.238-14.061 0-25.467-11.407-25.467-25.467s11.407-25.467 25.467-25.467c4.296 0 8.342 1.062 11.887 2.944 3.174 13.82 4.236 28.171 3.575 42.752z" fill="#b3dafe"/></g><g><path d="m417.411 278.524c-.001 1.898-.029 3.773-.09 5.664-.027.84-.06 1.68-.097 2.52-4.287 3.287-9.643 5.236-15.458 5.236-2.008 0-3.967-.23-5.846-.679.759-16.367-.679-32.455-4.876-47.883 3.257-1.519 6.885-2.368 10.722-2.368 4.296 0 8.333 1.059 11.881 2.948.11.48.22.969.32 1.449 1.307 5.858 2.164 11.813 2.748 17.796.255 2.611.431 5.23.543 7.851.106 2.48.154 4.975.153 7.466z" fill="#8ac9fe"/></g><g><path d="m347.662 121.457c-.511 4.066-.561 8.122-.17 12.118-30.294 3.185-60.899 4.977-91.463 4.977s-61.169-1.793-91.463-4.977c.391-3.996.341-8.052-.17-12.118-1.111-8.823-2.403-18.006-3.705-26.789 1.773.21 3.545.411 5.318.611 30.004 3.375 59.827 3.936 90.021 3.505 30.194.431 60.017-.13 90.021-3.505 1.772-.2 3.545-.401 5.318-.611-1.303 8.783-2.595 17.966-3.707 26.789z" fill="#fdf6ec"/></g><g><path d="m351.365 94.666c-.16 1.099-.32 2.198-.49 3.307-.618 4.029-1.182 8.239-1.749 12.351-.874 6.445-1.971 12.959-1.868 19.505.015.988.063 2.044.17 3.028.02.24.04.48.06.719-6.605.689-13.22 1.319-19.855 1.869-.33-4.746-.2-9.483.37-13.989 1.029-8.144 2.198-16.597 3.397-24.751 4.876-.4 9.762-.879 14.649-1.429 1.768-.2 3.547-.4 5.316-.61z" fill="#fef1da"/></g><g><path d="m207.372 242.283c-18.173 0-32.958 14.785-32.958 32.958s14.785 32.958 32.958 32.958 32.958-14.785 32.958-32.958c-.001-18.173-14.785-32.958-32.958-32.958zm0 50.928c-9.909 0-17.97-8.061-17.97-17.97 0-9.908 8.061-17.969 17.97-17.969 9.908 0 17.969 8.061 17.969 17.969 0 9.909-8.061 17.97-17.969 17.97z"/><path d="m304.686 242.283c-18.173 0-32.958 14.785-32.958 32.958s14.785 32.958 32.958 32.958 32.958-14.785 32.958-32.958-14.785-32.958-32.958-32.958zm0 50.928c-9.908 0-17.969-8.061-17.969-17.97 0-9.908 8.061-17.969 17.969-17.969 9.909 0 17.97 8.061 17.97 17.969 0 9.909-8.061 17.97-17.97 17.97z"/><path d="m419.704 237.211c-7.631-28.527-23.668-52.888-47.667-72.406-12.461-10.134-18.95-26.385-16.935-42.413 3.275-26.057 8.171-55.589 10.314-68.161h5.75c14.951 0 27.115-12.164 27.115-27.115.001-14.952-12.163-27.116-27.115-27.116h-150.112c-4.139 0-7.494 3.355-7.494 7.494s3.355 7.494 7.494 7.494h150.112c6.687 0 12.127 5.44 12.127 12.127s-5.44 12.127-12.127 12.127h-230.275c-6.687 0-12.127-5.44-12.127-12.127s5.44-12.127 12.127-12.127h45.454c4.139 0 7.494-3.355 7.494-7.494s-3.355-7.494-7.494-7.494h-45.454c-14.951 0-27.115 12.164-27.115 27.116 0 14.951 12.164 27.115 27.115 27.115h5.75c2.143 12.571 7.039 42.104 10.314 68.161 2.015 16.028-4.475 32.279-16.935 42.413-11.154 9.072-21.098 19.649-29.143 31.581-17.877 26.515-24.796 57.667-23.589 89.433.446 11.739 1.954 23.428 4.262 34.942 9.634 48.055 36.077 103.66 72.548 152.556.027.037.056.074.084.111.069.089 7.018 9.054 13.968 17.903 4.093 5.211 7.388 9.368 9.796 12.356 5.451 6.764 6.749 8.374 10.587 8.374h114.997c3.833 0 5.132-1.611 10.582-8.374 2.408-2.988 5.704-7.145 9.796-12.356 6.949-8.849 13.898-17.813 13.968-17.903.028-.037.057-.074.084-.111 36.471-48.897 62.914-104.501 72.548-152.557 6.124-30.549 5.854-58.659-.804-83.549zm-9.835 45.313c-2.493 1.268-5.245 1.928-8.107 1.928-9.91 0-17.973-8.063-17.973-17.973s8.063-17.973 17.973-17.973c1.858 0 3.655.272 5.374.812 2.086 10.456 3.003 21.593 2.733 33.206zm-59.656-228.293c-1.318 7.795-3.337 20.026-5.404 33.644-25.692 2.869-53.061 3.923-88.674 3.416-.071-.001-.142-.001-.214 0-35.615.506-62.985-.547-88.673-3.416-2.067-13.618-4.087-25.85-5.405-33.644zm-7.656 48.964c-.013.09-2.358 16.505-2.661 20.809-.066.943-.114 1.884-.138 2.823-28.744 2.808-56.877 4.231-83.729 4.231-26.853 0-54.986-1.423-83.729-4.231-.024-.938-.071-1.879-.138-2.822-.181-2.573-.528-5.063-.862-7.62-.402-3.073-1.793-13.144-1.8-13.191 25.177 2.619 52.108 3.57 86.529 3.085 34.414.486 61.348-.465 86.528-3.084zm-193.079 73.238c11.07-9.003 18.468-21.232 21.411-34.702 29.207 2.852 57.82 4.315 85.14 4.315s55.932-1.463 85.14-4.315c2.944 13.47 10.342 25.699 21.412 34.702 6.323 5.142 12.011 10.63 17.072 16.456-82.104 14.849-165.163 14.855-247.263.018 5.064-5.833 10.758-11.327 17.088-16.474zm-44.564 72.899c1.733-.544 3.553-.826 5.382-.826 9.91 0 17.973 8.063 17.973 17.973s-8.063 17.973-17.973 17.973c-2.868 0-5.624-.661-8.115-1.931-.264-11.61.653-22.742 2.733-33.189zm300.628 69.783c-.543 2.618-1.114 5.18-1.738 7.767-.11.457-.229.917-.342 1.375-3.763.969-7.648 1.46-11.595 1.46-14.076 0-27.237-6.306-36.109-17.301-1.616-2.002-4.148-3.037-6.702-2.737-2.556.299-4.779 1.888-5.89 4.209-2.537 5.302-6.018 10.025-10.346 14.037-3.035 2.814-3.214 7.556-.401 10.591s7.555 3.214 10.591.401c3.122-2.894 5.909-6.069 8.344-9.496 11.122 9.811 25.418 15.285 40.512 15.285 2.389 0 4.762-.141 7.112-.413-12.24 39.218-34.404 81.669-62.992 120.009-8.707 11.232-21.072 27.02-25.81 32.771h-108.295c-4.737-5.75-17.103-21.538-25.81-32.771-28.593-38.346-50.759-80.805-62.998-120.028 2.351.275 4.724.432 7.118.432 15.099 0 29.4-5.478 40.523-15.295 11.396 15.975 30.084 25.86 50.039 25.86 17.447 0 33.75-7.315 45.276-19.961 11.526 12.646 27.829 19.961 45.276 19.961 2.011 0 4.038-.099 6.024-.293 4.119-.403 7.132-4.069 6.73-8.188-.403-4.119-4.068-7.13-8.188-6.73-1.504.147-3.041.221-4.566.221-15.812 0-30.384-7.956-38.978-21.283-1.38-2.14-3.752-3.433-6.298-3.433s-4.918 1.293-6.298 3.433c-8.594 13.327-23.165 21.283-38.978 21.283-17.758 0-34.189-10.361-41.861-26.395-1.111-2.321-3.335-3.911-5.89-4.209-2.553-.299-5.086.735-6.702 2.737-8.872 10.995-22.033 17.301-36.109 17.301-3.952 0-7.836-.49-11.594-1.458-.116-.47-2.549-11.416-2.906-13.316-1.011-5.386-1.83-10.818-2.437-16.273 2.289.5 4.642.77 7.043.77 18.175 0 32.961-14.786 32.961-32.961s-14.786-32.961-32.961-32.961c-.406 0-.809.031-1.214.046 1.198-3.54 2.542-7.03 4.058-10.447 1.32-2.974 2.761-5.894 4.319-8.751.455-.835 4.154-8.206 4.831-8.076 88.768 17.005 178.696 16.999 267.469-.019.006.009.012.018.018.027 3.734 5.718 6.972 11.759 9.673 18.032 1.312 3.048 2.48 6.13 3.527 9.237-.405-.015-.809-.049-1.215-.049-18.175 0-32.961 14.786-32.961 32.961s14.786 32.961 32.961 32.961c2.402 0 4.76-.261 7.051-.76-.494 4.457-1.135 8.905-1.911 13.331-.417 2.377-.872 4.745-1.361 7.106z"/></g></g></svg>