<svg id="Capa_1" enable-background="new 0 0 512.006 512.006" height="512" viewBox="0 0 512.006 512.006" width="512" xmlns="http://www.w3.org/2000/svg"><g><g><g><path d="m260.882 504.506h-127.764c-6.375 0-10.917-6.189-9.005-12.27l10.303-32.777h125.169l10.303 32.777c1.91 6.082-2.631 12.27-9.006 12.27z" fill="#f82f40"/><path d="m260.879 504.506h-37.25c6.38 0 10.92-6.19 9.01-12.27l-10.31-32.78h37.26l10.3 32.78c1.91 6.08-2.63 12.27-9.01 12.27z" fill="#d32237"/></g><g><g><g><g><path d="m465.339 126.176c-14.46-14.45-33.68-22.41-54.12-22.41s-39.66 7.96-54.12 22.41l-54.042 54.048v53.403l80.742-80.751c15.12-15.12 39.72-15.12 54.84 0s15.12 39.72 0 54.84l-95.958 95.951v53.398l122.658-122.649c29.84-29.84 29.84-78.4 0-108.24z" fill="#f82f40"/></g><g fill="#d32237"><path d="m353.319 183.356-55.36 55.37-26.7-26.7 56.17-56.17c9.58 8.41 18.23 17.63 25.89 27.5z"/><path d="m465.339 126.176c-10.19-10.18-22.75-17.15-36.43-20.36 4.01 2.71 7.8 5.84 11.3 9.34 29.84 29.84 29.84 78.39 0 108.23l-37.872 37.875c-4.383 4.384-11.819 2.231-13.283-3.793l-.035-.142-46.338 46.338v53.403l51.998-51.99v-.005l70.66-70.655c29.84-29.841 29.84-78.401 0-108.241z"/></g></g></g></g><path d="m303.992 168.845c-30.208-23.937-26.153-71.223 8.344-88.413.875-.436 1.761-.86 2.656-1.27l10.716-4.913c6.082-2.789 9.981-8.866 9.981-15.557 0-9.383-7.557-16.999-16.938-17.113-139.756-1.696-229.156-24.013-260.684-33.364-7.565-2.244-15.677.969-19.652 7.786l-6.592 11.306c-4.667 8.003-2.117 18.267 5.751 23.157l39.924 24.81c7.534 4.682 14.167 10.337 19.812 16.719 19.918 22.518 16.807 57.427-6.926 75.88-40.626 31.587-66.804 80.876-66.942 136.29-.188 75.314 48.321 139.862 115.71 163.716h115.054c67.267-23.75 115.473-87.878 115.473-163.276 0-55.022-25.67-104.049-65.687-135.758z" fill="#fb4a59"/><g><path d="m303.989 168.846c-30.21-23.94-26.15-71.22 8.35-88.41.87-.44 1.76-.86 2.65-1.27l10.72-4.92c6.08-2.79 9.98-8.86 9.98-15.56 0-4.69-1.89-8.94-4.95-12.03s-7.3-5.02-11.99-5.08c-15-.18-29.42-.6-43.25-1.22 1.43.79 2.74 1.79 3.88 2.94 3.149 3.18 5.059 7.599 4.945 12.451-.156 6.646-4.323 12.545-10.365 15.318l-10.33 4.741c-.89.41-1.78.83-2.66 1.27-34.49 17.19-38.55 64.47-8.34 88.41 4.566 3.618 8.935 7.472 13.11 11.523-17.509 2.594-40.735 4.803-69.1 4.803-68.727 0-106.26-13.936-106.26-13.936-11.04 8.58-21.01 18.47-29.69 29.44l10.51 3.6c37.08 12.69 80.14 19.4 124.52 19.4 25.105 0 49.761-2.152 73.156-6.311 14.793-2.63 29.573 5.272 35.497 19.079 8.974 20.916 13.947 43.955 13.947 68.162 0 79.292-53.305 146.127-126.042 166.633h61.936c67.265-23.754 115.466-87.881 115.466-163.273 0-55.03-25.67-104.05-65.69-135.76z" fill="#f82f40"/></g><g><path d="m303.989 168.846c-8.74-6.93-14.6-15.8-17.7-25.33-25.84 7.33-56.51 11.8-90.57 11.8-33.05 0-62.92-4.21-88.27-11.17-3.18 9.07-8.9 17.38-17.07 23.73-3.83 2.98-7.53 6.11-11.09 9.39 34.31 11.74 74.52 18.05 116.43 18.05 42.42 0 83.07-6.46 117.65-18.47-3.03-2.78-6.16-5.45-9.38-8z" fill="#5bbd93"/></g><path d="m240.859 152.586c16.38-2.04 31.6-5.15 45.43-9.07 3.1 9.53 8.96 18.4 17.7 25.33 3.22 2.55 6.35 5.22 9.38 8-11.95 4.15-24.63 7.64-37.86 10.43-6.95-7.94-14.61-15.23-22.88-21.79-4.78-3.79-8.69-8.16-11.77-12.9z" fill="#2db181"/><path d="m365.079 341.646c-11.8-6.81-30.98 2.8-49.21 22.56-2.21-16.57-8.42-28.18-18.05-30.76-13.16-3.53-29.21 10.71-41.7 34.52-4.56-21.43-13.84-35.97-25.7-37.01-12.69-1.11-25.17 13.52-33.42 36.37-8.24-22.85-20.73-37.48-33.42-36.37-11.86 1.04-21.14 15.58-25.7 37.01-12.49-23.81-28.54-38.05-41.69-34.52-9.64 2.58-15.84 14.19-18.06 30.76-18.22-19.76-37.41-29.37-49.21-22.56-.44.25-.86.53-1.27.83 13.12 58.301 55.868 105.709 111.482 125.403h115.102c55.805-19.713 98.484-67.218 111.396-125.893-.18-.12-.36-.23-.55-.34z" fill="#fca62f"/><path d="m365.079 341.646c-11.8-6.81-30.98 2.8-49.21 22.56-.81-6.05-2.15-11.45-4-15.98-16.263 57.807-61.794 103.36-119.597 119.653h61.961c55.805-19.713 98.484-67.218 111.396-125.893-.18-.12-.36-.23-.55-.34z" fill="#f98824"/><g><path d="m196.559 393.116c-48.74 0-92.93 11.72-125.22 30.75 18.646 19.575 41.808 34.815 67.777 44.013h115.129c25.97-9.176 49.097-24.368 67.694-43.913-32.31-19.09-76.57-30.85-125.38-30.85z" fill="#fcc16d"/><path d="m282.729 406.406c-22.43 29.291-54.014 51.198-90.474 61.473h61.99c25.97-9.176 49.097-24.368 67.694-43.913-11.64-6.87-24.82-12.8-39.21-17.56z" fill="#fca62f"/><path d="m321.939 423.966c-8.1 8.51-17.05 16.2-26.73 22.92-27.28-12.7-61.5-20.25-98.64-20.25-37.07 0-71.22 7.52-98.47 20.18-9.68-6.74-18.65-14.43-26.76-22.95 32.29-19.03 76.48-30.75 125.22-30.75 48.81 0 93.07 11.76 125.38 30.85z" fill="#5bbd93"/><g><path d="m321.939 423.966c-8.1 8.51-17.05 16.2-26.73 22.92-11.65-5.42-24.57-9.91-38.44-13.26 9.6-8.11 18.31-17.23 25.96-27.22 14.39 4.76 27.57 10.69 39.21 17.56z" fill="#2db181"/></g></g></g><g><path d="m470.641 120.874c-15.872-15.872-36.975-24.613-59.421-24.613-22.445 0-43.549 8.741-59.422 24.613l-42.566 42.567c-.196-.156-.385-.318-.581-.474-12.421-9.842-18.859-25.081-17.225-40.762 1.606-15.401 10.447-28.18 24.255-35.061.802-.4 1.614-.788 2.438-1.166l10.716-4.913c8.721-3.999 14.355-12.781 14.355-22.375 0-13.408-10.922-24.449-24.348-24.612-22.75-.276-45.401-1.126-67.324-2.526-4.149-.26-7.7 2.874-7.963 7.007-.265 4.134 2.873 7.699 7.006 7.963 22.181 1.417 45.092 2.276 68.099 2.556 5.255.064 9.53 4.376 9.53 9.613 0 3.747-2.201 7.178-5.607 8.74l-10.713 4.912c-.971.444-1.93.904-2.878 1.376-18.224 9.081-30.367 26.625-32.484 46.931-.62 5.943-.363 11.836.698 17.528-24.866 6.31-52.861 9.639-81.486 9.639-28.091 0-54.626-3.041-79.013-9.025.432-2.133.76-4.302.966-6.507 1.014-10.894-1.02-21.805-5.669-31.518 14.071 5.258 31.74 10.353 52.714 13.477.375.056.747.083 1.115.083 3.653 0 6.854-2.674 7.408-6.396.61-4.097-2.216-7.913-6.313-8.523-44.134-6.574-73.022-22.652-82.024-28.25-1.133-.772-2.278-1.528-3.446-2.254l-39.924-24.81c-4.452-2.767-5.872-8.481-3.231-13.009l6.592-11.306c2.237-3.838 6.778-5.637 11.04-4.374 24.758 7.343 78.379 20.789 159.329 28.345 4.133.392 7.78-2.646 8.165-6.77.385-4.125-2.646-7.78-6.771-8.165-79.678-7.437-132.227-20.604-156.459-27.79-10.907-3.233-22.533 1.368-28.264 11.199l-6.592 11.306c-6.759 11.593-3.125 26.222 8.272 33.305l39.726 24.687c.514.363 1.739 1.206 3.639 2.398 5.416 3.752 10.357 8.12 14.71 13.043 8.287 9.369 12.21 21.419 11.045 33.932-.336 3.607-1.094 7.092-2.223 10.414-.113.276-.215.559-.296.853-.004.015-.006.031-.01.046-2.82 7.75-7.745 14.549-14.427 19.745-3.885 3.021-7.626 6.201-11.231 9.513-.266.217-.519.45-.754.703-31.832 29.589-52.311 70.127-56.845 113.421-.432 4.12 2.559 7.809 6.678 8.24.266.028.529.042.79.042 3.792 0 7.047-2.865 7.45-6.719 4.023-38.418 21.749-74.474 49.357-101.354 34.29 11.133 73.752 17.02 114.495 17.02 41.28 0 81.189-6.033 115.786-17.442 32.378 31.139 50.674 73.761 50.674 119.23 0 9.344-.796 18.557-2.32 27.565-11.395-1.426-25.279 4.593-39.592 17.216-4.083-12.601-11.137-20.672-20.504-23.182-13.388-3.593-28.22 5.043-41.283 23.464-6.355-15.857-15.938-25.176-27.407-26.182-12.697-1.099-24.676 7.954-34.07 25.315-9.39-17.364-21.387-26.427-34.078-25.315-11.468 1.005-21.05 10.324-27.405 26.181-13.063-18.419-27.896-27.057-41.268-23.464-9.367 2.507-16.425 10.58-20.514 23.184-14.673-12.944-28.895-18.939-40.453-17.088-.635-3.725-1.151-7.483-1.529-11.275-.409-4.122-4.08-7.123-8.205-6.721-4.122.41-7.131 4.084-6.721 8.206 6.42 64.524 47.661 120.85 106.526 147.125l-6.399 20.355c-1.635 5.202-.722 10.707 2.505 15.103s8.204 6.917 13.656 6.917h127.763c5.453 0 10.432-2.521 13.657-6.918 3.227-4.396 4.139-9.9 2.504-15.102l-6.473-20.592c54.766-24.607 93.544-74.972 103.867-133.475l96.204-96.204c32.764-32.769 32.764-86.081.001-118.846zm-376.161 53.324c.17-.134.336-.272.507-.405 7.274-5.656 12.987-12.727 16.898-20.74 25.901 6.476 54.063 9.763 83.834 9.763 30.643 0 59.552-3.474 86.058-10.318 3.755 8.106 9.323 15.403 16.457 21.325-31.057 9.174-66.199 13.993-102.515 13.993-35.796 0-70.498-4.688-101.239-13.618zm-21.865 195.092c1.972 2.138 5 2.943 7.771 2.068 2.773-.875 4.79-3.274 5.176-6.156 1.84-13.734 6.537-22.897 12.571-24.512 8.757-2.351 22.369 10.298 33.104 30.76 1.469 2.8 4.531 4.374 7.664 3.946 3.131-.431 5.655-2.778 6.313-5.869 3.877-18.219 11.343-30.427 19.018-31.1 8.367-.743 18.666 11.907 25.711 31.443 1.072 2.973 3.894 4.955 7.055 4.956h.001c3.16 0 5.981-1.981 7.055-4.953 7.053-19.536 17.391-32.179 25.71-31.446 7.677.673 15.143 12.881 19.02 31.1.658 3.091 3.183 5.438 6.313 5.869.344.047.686.07 1.025.07 2.758 0 5.331-1.524 6.639-4.017 10.734-20.463 24.355-33.106 33.117-30.759 6.032 1.616 10.726 10.777 12.557 24.507.385 2.882 2.4 5.283 5.173 6.159 2.775.877 5.803.071 7.774-2.065 13.02-14.112 26.558-22.493 35.27-22.328-6.677 25.164-19.172 48.277-36.222 67.53-34.099-18.651-77.799-28.877-123.872-28.877-45.995 0-89.636 10.193-123.707 28.782-17.05-19.203-29.615-42.257-36.335-67.393 8.67-.748 22.664 7.714 36.099 22.285zm180.291 91.089h-112.451c-9.15-3.319-17.891-7.415-26.167-12.185 24.583-9.216 52.723-14.058 82.282-14.058 29.631 0 57.829 4.869 82.46 14.123-8.246 4.741-16.973 8.811-26.124 12.12zm-56.336-41.243c-35.41 0-69.035 6.596-97.593 19.079-5.329-3.91-10.393-8.139-15.198-12.628 31.328-16.146 70.935-24.972 112.78-24.972 41.936 0 81.621 8.856 112.981 25.069-4.798 4.487-9.877 8.696-15.21 12.606-28.601-12.527-62.279-19.154-97.76-19.154zm65.875 77.078c-.266.361-.752.792-1.564.792h-127.763c-.813 0-1.299-.431-1.563-.792-.266-.361-.531-.955-.287-1.729l6.084-19.352c.59.146 1.191.247 1.801.247h115.054c.815 0 1.623-.141 2.394-.401l6.132 19.507c.243.774-.022 1.367-.288 1.728zm114.574-184.091c.104-2.497.16-5.004.16-7.52 0-7.866-.519-15.65-1.504-23.322l29.301-29.302c2.929-2.929 2.929-7.678 0-10.606-2.93-2.929-7.678-2.929-10.607 0l-21.923 21.923c-5.129-22.019-14.345-42.767-27.166-61.291l43.827-43.826c5.895-5.895 13.748-9.142 22.113-9.142s16.219 3.247 22.113 9.142c12.194 12.194 12.194 32.035.001 44.229l-13.937 13.936c-2.93 2.929-2.93 7.677-.001 10.606 1.465 1.465 3.384 2.197 5.304 2.197 1.919 0 3.839-.732 5.303-2.197l13.938-13.936c18.042-18.042 18.042-47.4-.001-65.442-8.728-8.729-20.349-13.535-32.72-13.535-.001 0 0 0-.001 0-12.371 0-23.992 4.807-32.72 13.535l-42.355 42.354c-4.804-5.825-9.986-11.387-15.552-16.633l41.813-41.814c13.04-13.039 30.376-20.22 48.815-20.22s35.775 7.181 48.813 20.219c26.916 26.917 26.916 70.712 0 97.628z"/><path d="m103.97 375.466h.104c4.143 0 7.5-3.358 7.5-7.5s-3.357-7.5-7.5-7.5h-.104c-4.143 0-7.5 3.358-7.5 7.5s3.357 7.5 7.5 7.5z"/><path d="m165.822 375.466h.104c4.143 0 7.5-3.358 7.5-7.5s-3.357-7.5-7.5-7.5h-.104c-4.143 0-7.5 3.358-7.5 7.5s3.358 7.5 7.5 7.5z"/><path d="m227.675 375.466h.104c4.143 0 7.5-3.358 7.5-7.5s-3.357-7.5-7.5-7.5h-.104c-4.143 0-7.5 3.358-7.5 7.5s3.357 7.5 7.5 7.5z"/><path d="m289.527 375.466h.104c4.143 0 7.5-3.358 7.5-7.5s-3.357-7.5-7.5-7.5h-.104c-4.143 0-7.5 3.358-7.5 7.5s3.357 7.5 7.5 7.5z"/></g></g></svg>